<?xml version="1.0" encoding="UTF-8"?>
<svg id="_圖層_1" data-name="圖層_1" xmlns="http://www.w3.org/2000/svg" version="1.1" viewBox="0 0 800 792">
  <!-- Generator: Adobe Illustrator 29.6.1, SVG Export Plug-In . SVG Version: 2.1.1 Build 9)  -->
  <defs>
    <style>
      .st0 {
        fill: #2e2624;
      }
    </style>
  </defs>
  <path class="st0" d="M386.15,296.12c-.09-.71-.16-1.49-.21-2.29-.05-.71-.15-2.03-.26-2.37-.12-.28-.32-.53-.64-1-.5-.72-.97-1.44-1.4-2.22-1.76-3.25-2.12-6.55-2.42-9.25-.23-2.07-.39-3.29-.89-4.08-.69-.94-2.58-1.98-4.45-3.02-2.01-1.13-4.29-2.4-6.38-4.22-1.23-1.08-2.29-2.24-3.47-3.56-.81-.91-2.33-2.61-2.81-2.78l-4.69-.14-2.41-5.99c-2.29-.28-4.89-.52-7.32-.52s-4.47.25-5.95.73c-1.95.64-3.94,1.65-6.06,2.72-2.16,1.09-4.58,2.32-7.27,3.28l-2.14,2.59-1.4.68c-3.72,1.81-5.86,2.85-6.44,3.11l-2.19.98-2.45-.56-35.17,7.51c-23.13,5.75-28.5,8.44-29.42,8.97l-2.88,4.33-4.88-2.14c-.29-.02-.77-.04-1.51-.04-2.49,0-7.22.59-15.57,3.39l-2.17.73-2.19-.66c-2.85-.86-6.31-2.27-9.75-3.98-4.48-1.8-6.3-2.35-6.83-2.49-1.62,0-3.24.08-5.07.16-2.01.09-4.01.17-6.01.17-1.55,0-3.09-.05-4.66-.18-.96-.08-2.15-.24-3.48-.43-2.07-.29-4.41-.61-6.36-.61-.39,0-.72.01-.98.03-.03.14-.06.28-.09.42-.52,2.33-1.3,5.86-4.1,8.57-2.63,2.55-4.03,4.92-4.03,6.86,0,1.61.15,2.21.15,2.21l.4,1.43-.54,3.95c.09,3.48,1.14,7.23,3.16,11.14,2.17,4.26,3.98,5.31,4.86,5.55l2.91.81,1.46,2.65c1.11,2.01,2.97,3.63,5.71,4.95l9.76,2.57c.15-.09,2.27-1.46,2.27-1.46h5.28l11.41,4.97c5.46,2.89,8.56,7.92,8.79,14.23.69.68,1.46,1.45,2.29,2.3,2.15,2.17,4.39,4.2,6.67,6.04,1.74,1.4,2.54,1.42,2.55,1.42,2.76,0,5.03.11,6.88.34,1.66-.88,3.22-1.09,4.33-1.09h.45l4.21-2.14c3.85-5.45,7.66-8.79,11.79-10.28l.63-.18c.22-.05,1.86-.49,12.16-3.94,3.08-1.04,5.33-1.51,7.29-1.51,2.5,0,4.31.31,5.87,1.02l5.81,2.63-2.79,8.83c.85,1.89,1.78,3.56,2.81,5.07l1.53.55c2.93,1.06,5.4,2.18,7.47,3.4l8.71-3.95s2.39,7.93,2.4,7.97l.82-.72c3.6-7.69,8.87-17.06,16.12-28.63,15.73-24.59,23.19-30.2,27.85-32.31,4.87-2.33,11.13-3.74,19.11-4.27,1.42-1.87,3.09-3.32,4.52-4.56.45-.39.93-.81,1.35-1.2-.03-.17-.06-.34-.08-.51ZM323.43,293.46c-7.86,15.47-12.91,26.21-15.02,31.93l-1.92,5.23-11.87-1.2c-18.87,4.17-30.22,6.77-34.69,7.95l-4.45,1.19-2.94-3.54c-4.53-5.47-7.54-9.73-9.19-13.01l-.77-1.52v-1.7c0-3.39.95-7.83,4.9-11.58l-.51-.46,5.87-5.31c6.22-5.63,15.17-9.62,26.55-11.85,7.67-1.67,13.15-2.94,15.83-3.67l1.11-.31c5.39-1.47,10.49-2.86,16.48-2.86,1.68,0,3.37.11,5.14.33l10.11,1.3-4.62,9.08Z"/>
  <path class="st0" d="M215.5,267.86c-2.95-.73-4.54-1.57-5.4-2.21-.97-1.25-1.76-2.38-2.35-3.37-.9-1.49-1.78-2.88-2.66-4.21l-.15-.24-.34-.44-3.76-4.13c.33-1.93.71-4.49,1.21-7.86l.28-1.88-4.88-12.54.27-1.25-.31-1.49c.26-.71,2.57-3.74,14.72-6.18l55.71-12.11,1.84-32.15-4.55-2.01c-1.54-.68-3.39-.99-5.81-.99-1.83,0-6.45,0-10.05,2.69-10.3,1.68-25.74,6.11-47.1,13.51l-4.11,1.42c-4.31.53-9.69,1.92-18.92,5.6-12.09,4.95-20.2,8.67-24.84,11.37-4.56,2.66-11.01,7.29-19.71,14.15-3.45,1.96-7.85,3.96-10.01,4.74-.12-.19-.25-.41-.4-.66-1.06-1.74-2.5-4.09-4.93-6.37-1.97-1.83-3.72-2.88-5.09-3.56l-.13-2.29-3.33-1.94c-8.5-4.98-10.22-7.9-10.52-8.57.14-.82.7-3.61,2.99-11.4l.3-.98v-1.05c0-1.49,0-1.6-4.43-14.02.58-4.62,1.85-9.97,3.77-15.91.59-.41,1.87-1.21,4.7-2.73,1.06-.57,1.97-1.07,2.59-1.46,1.78-1.11,3.64-2.38,5.56-3.69,3.95-2.7,8.01-5.47,11.9-7.12.53.8,1.2,1.64,2.07,2.43,3.34,3.04,7.33,3.43,10.43,3.43.32,0,3.49-.07,3.49-.07,1.25,0,1.64.11,1.73.14.34.14.67.4,1.06.67,1.68,1.13,4.14,2.8,7.73,3.02,0,0,.57.02.57.02,2.32,0,4.45-.66,6.15-1.2.83-.26,1.27-.42,1.65-.48,1.99-.32,4.1-.52,6.22-.71,3.96-.37,8-.74,11.96-1.84l5.95-.5c.14.04,2.94.87,2.94.87l2.33-.94c6.63-2.67,14.59-4.14,23.65-4.37l2.67-.07,1.15-1.04c.9-.24,3.14-.73,8.15-1.39,6.61-.87,11.36-1.41,14.54-1.65,4.48-.26,11.22-1.42,20.57-3.54l6.72-1.53-1.25-6.78c-1.49-8.09-3.13-14.22-4.99-18.74l-.48-1.16-.83-.92c-1.43-1.58-4.1-5.15-8.73-13.21-.95-2.61-2.37-4.78-4.22-6.46l-.83-.76-.1-.05c-1.4-3.19-2.88-5.79-4.48-7.86l.7-2.22v-1.11c0-1.47-.19-3.78-1.13-6.18.26-.1,1.7-.68,1.7-.68l22.78-17.52c7.39-5.22,15.17-7.91,23.02-7.91h.04c1.54.59,3.02.91,4.49.96,1.58.94,3.3,1.87,5.12,2.78l4.45,2.24c1.31,4.47,3.91,10.08,7.9,17.08,5.77,10.74,6.13,13.68,6.15,13.81l-.92,10.52c-3.51,2.5-6.48,6.41-8.85,11.65-2.9,6.42-4.38,12.47-4.38,17.99,0,2.43.28,4.3.87,5.9l2.26,6.04,6.24-1.58c13.36-3.39,31.11-5.98,52.77-7.7,11.13-.96,18.59-2.6,25.81-4.2,5.74-1.26,11.14-2.45,18.19-3.3.98,1.56,2.29,2.9,3.84,3.9,1.49.96,2.93,1.48,4.08,1.9l.14.05c-.09.53-.22,1.04-.35,1.58-.16.66-.31,1.31-.45,1.97-1.2,6.3-.25,12.59,2.69,17.73,1.31,2.3,2.98,3.9,4.31,5.18.68.66,1.62,1.56,1.74,1.91.36,1.15.93,2.16,1.66,2.99-.61,1.06-1.56,2.43-3.09,4.14-3,.58-6.22.87-9.58.87q-30.51-1.5-30.62-1.5c-41.94,0-59.79,3.64-82.4,8.25l-6.89,1.4.99,6.97.17.77-.64,2.92-.86,11.34c-.03,5.3,2.16,8.35,4,10.01l1.53,1.38,4.74.85h.32c2.39,0,4.97-.44,8.44-1.38l13.17-2.31c8.88-1.57,17.06-3.02,17.7-3.11,3.55,0,9.03,4.03,9.88,6.17.39.98.2,3,.01,4.95-.31,3.18-.68,7.06.68,11.06.53,1.56,1.63,4.79,1.11,6.15-.26.68-2.12,2.02-3.36,2.91-.74.53-1.49,1.07-2.2,1.63-12.51,2.68-43.32,8.58-48.2,9.28l-22.87,3.39c-1.82.2-6.39,1.3-25.36,7.83-1.08.28-24.88,8.12-31.49,13.11-4.31,3.67-6.74,4.82-7.92,5.18Z"/>
  <path class="st0" d="M225.19,739.73c-5.96-1.28-12.07-4.72-18.17-10.25l-.56-.5-.71-.24c-4.09-1.37-7.54-2.03-10.56-2.03-.9,0-1.77.06-2.59.19l-6.43-2.91s.02,0,.02,0c.13,0-.4-.94-.4-3.5,0-5.78,2.89-11.32,8.84-16.94l1.13-1.06v-3.05c-.27-4.87,1.54-6.5,3.14-7.4,3.22-1.79,6.88-3.05,10.88-3.72l2.56-.45c3.43-.61,6.39-1.15,9.52-1.15,1.39,0,2.71.11,4.05.33,5.29.86,10.98,1.25,17.91,1.25,5.67,0,11.44-.27,17.03-.54,5.44-.26,11.06-.52,16.41-.52h.78l4.48-2.03v-7.04h-3.59c-.1,0-1.24-.08-5.37-1.65-2.93-1.18-5.07-1.74-6.67-1.74-.45,0-.9.04-1.37.12-2.51-3.81-4.65-6.72-6.51-8.84-1.3-1.49-2.75-2.64-4.32-3.44l-.02-.14c-.44-3.16-2.09-5.58-4.79-7.01-.19-.1-.38-.19-.57-.29.44-.21.88-.43,1.34-.66,9.34-4.06,10.86-4.6,11.07-4.67l13.22-2.57.39.35,4.84-.87,2.76-2.51v-1.59c0-1.13-.28-2.9-2.4-7.51l-.68-1.48-1.56-.47c-1.21-.36-2.86-.53-5.18-.53-6.14,0-14.71,3.87-26.18,11.84-2.57-.6-4.69-2.23-4.69-7.5v-1.21l-.73-.97c-2.86-3.77-4.97-7.87-7.21-12.2-.89-1.72-1.79-3.47-2.75-5.22,4.32-1.23,11.43-4.69,24.16-13.97l6.4-4.67-7.73-1.74c-3.51-.79-5.9-2.25-7.31-4.45l-.64-1-1.11-.42c-2.48-.94-5.24-2.77-8.22-5.47l.73-4.61-.6-1.08c-2.48-4.48-3.37-7.38-3.62-9.19.96-1.2,2.73-3.35,4.35-5.31,3.23-3.93,7.12-8.65,9.17-11.31l2.78-3.6-10.21-4.62-1.7,1.25c-3.7,2.73-18.58,21.15-27.05,34.06-9,13.72-14.1,22.75-15.59,27.62-4.83,12.38-11.22,26.84-18.9,42.73-8.12,12.97-12.97,20.75-14.36,23-5.65,9.3-8.77,16.64-9.5,22.34-5.52,2.83-9.47,9.4-11.99,19.95-2.19.24-4.81.36-7.83.36h-.43l-4.58,1.11c-2.64-2.67-5.12-4.03-7.56-4.14-.32-.57-.73-1.06-1.2-1.47-.72-1.78-1.98-3.49-3.75-5.1-3-2.51-4.26-3.66-4.78-4.16-.19-.75-.63-2.57-1.6-6.77l-.12-.52-4.7-8.16.33-4.54c.01-2.43-.92-5.14-2.92-8.76-2.34-4.03-2.1-9.13-1.85-14.54.06-1.18.11-2.34.14-3.49l13.74-6.31c1.79-.82,3.89-1.44,6.12-2.09,3.53-1.04,7.17-2.11,10.09-4.18,2.48-1.77,4.54-4.24,6.36-6.41.65-.78,1.29-1.55,1.92-2.25,7.61-8.42,14.9-17.25,21.65-25.53l35.33-44.79c12.89-17,22.68-33.46,29.14-48.97l2.97-7.14-7.38,2.33c-5.63,1.78-13,4.6-21.91,8.39l-.76.32-.54.62c-3.77,4.32-8.83,8.94-15.04,13.74-1.08-.1-2.23-.35-3.41-.75l-.66-1.19-.83-.5c-12.61-7.53-19.01-14.97-19.01-22.11,0-1.6.18-2.1.19-2.12l.23-.61v-4.41c0-4.73-1.2-8.84-3.56-12.21l-.36-.51-10.65-7.51c-.34-1.41-.38-2.07-.38-2.33,0-1.9,1.65-7.85,16.83-22.29,1.58.12,4.6,1.58,7.04,2.76,3.74,1.81,7.27,3.51,10.39,3.51,2.13,0,3.53-.81,4.32-1.49.12-.09.56-.28,1.42-.28.35,0,.71.03,1.05.08l-1.75,2.16,6.96.43c.27.02.53.02.8.02,2.08,0,3.97-.48,5.64-.9,6.22-1.57,12.53-2.5,19.21-3.48,5.49-.8,11.17-1.64,16.76-2.86,17.17-3.76,23.2-5.24,25.56-5.96l2.81.73.96-.29c13.07-3.94,23.66-6.56,31.49-7.79,19.73-3.57,31.76-5.92,36.86-7.21,15.37-3.9,25.63-8.61,31.26-14.36,2.76.54,8.93,2,12.6,3.48,4.64,1.89,8.22,3.34,10.71,4.34.31.5.69,1.19,1.08,1.88,1.27,2.22,1.84,3.19,2.45,3.83,2.46,2.58,5.64,4.95,9.46,7.04l1.01.54c2.5,1.34,5.61,3.02,5.8,4.67.04.34-.01.9-.06,1.43-.14,1.55-.36,3.89,1.12,6.04,1.35,1.96,3.41,2.76,5.16,3.27.02.92.03,1.83.04,2.72,0,1.29.02,2.55.07,3.74.24,6.43.79,12.86,1.68,19.61l-3.21,4.12c-.41.04-.98.07-1.74.07-1.8,0-3.65-.31-5.49-.94l-.93-.31-.96.2c-7.66,1.6-14.82,5.33-21.29,11.09-1.41.39-2.75,1.86-6.97,6.5-3.47,3.12-6.47,6.24-8.68,9.03-1.83,2.33-3.17,4.88-4,7.63-21.2,1.38-48.79,7.45-82.08,18.06l-3.37,1.08.93,3.09c-.1.91-.93,3.23-1.44,4.64-1.56,4.36-2.79,7.8-1.02,10.31.83,1.18,2.17,1.86,3.67,1.86,2.6,0,5.65-.54,9.34-1.65,1.93-.43,3.63-.8,4.86-1.05,1.2-.24,2.14-.49,2.9-.77,12.74-1.54,27.29-4.59,43.24-9.08l1.44-.4.73-1.31c.51-.92.84-1.26.93-1.34-.02.02-.01.04.05.04.21,0,1.06-.14,2.96-.14l2.13.02s1.51-.03,1.9-.03c5.23,0,8.78,1.38,14.12,3.47.46,1.83,1.33,3.47,2.51,4.81-.38,2.13-.13,4.81.24,6.9l-2.92,2.26.18.81c-.62.14-3.27.7-3.27.7l-4.15,3.75,3.65,6.14-.33,1.32c-5.14,1.11-10.42,1.67-15.75,1.67h-10.7l2.34,1.77-6.05.5c-4.28.76-7.28,1.12-9.25,1.12h-.35l-.34.07c-3.99.78-8.63,2.08-13.79,3.89l-1.79.63-.49,1.83c-1.83,6.84-2.34,8.22-2.46,8.47l3.08-1.83,3.53,3.31h-7.19v4.91l4.11-.6c1.13-.17,4.19-.53,12.27-1.3,7.05-.66,13.08-2.24,17.9-4.7l1.96-1v-2.2c0-.73.1-1.15.19-1.37l.23-.61v-2.32h4.98v-3.12l.46-.41c1.99,1.29,4.46,2.21,7.35,2.72l6.57.67,1.4,1.27h2.22c1.91,0,6.44,2.68,9.15,4.28,1.61.95,3.09,1.82,4.24,2.37,7.4,3.56,12.65,7.09,16.53,11.13,6.23,6.51,8.65,14.92,6.17,21.43-.35.93-.79,1.84-1.23,2.77-1.16,2.43-2.44,5.13-2.52,8.15-1.39.25-2.82.37-4.3.37-3.74,0-7.84-.79-11.86-2.3-4.31-1.61-8.46-4.01-12.47-6.34-1.73-1-3.45-2-5.19-2.94-5.01-2.73-10.64-7.22-11.14-8.91l-7.16.23v1.34s.44,1.32.55,1.67l-12.89.56c-7.35.53-13.44,1.75-18.18,3.63l-6.73,2.66,6.51,3.94,4.7,9.94,3.54-5.15c.65-.95,2.29-1.29,3.69-1.4.93.59,2.13,1.05,3.7,1.45,2.62,3.35,6.88,6.99,12.97,11.06l.07.05v2.99l.18.4c-1.47,1.85-2.48,3.97-3,6.33l-.45,2.01.73.68c.02.38.05.97.05,1.85,0,.09,0,.18,0,.26l-.08.07c-.71.2-2.56.65-7.28,1.59-1.91-.26-4.94-.26-9.81-.26-2.93,0-7.02,1.27-9.89,7.32l-.09.2-3.72,11.22,5.28,1.61h2.97c1.02.25,2.14.38,3.38.38l22.96-.76,22.54-1.51c4.05,0,8.01.13,11.55.38,3.64.25,7.5.38,11.46.38,5.65,0,11.4-.42,16.97-.83,4.79-.35,9.74-.71,14.53-.8h.47c.56,0,.73.03.77.05.07.05.29.26.62.64.48.55.96,1.12,1.43,1.7.84,1.05,1.63,2.14,2.37,3.25.05.08.09.15.14.21-.12.15-.21.29-.29.44-2.55,4.48-1,9.03.24,12.67,1.5,4.42,1.84,6.13-.22,8l-1.18,1.07v5.35c0,3.84.3,6.85.92,9.19-1.72,1.01-3.44,1.5-5.22,1.5-.45-.01-3.04-.28-17.09-3.3-8.89-1.77-16.08-3.04-21.42-3.8-15.62-2.03-30.44-3.05-44.1-3.05-9.48,0-22.6.9-38.99,2.65-18.65,1.79-30.98,3.68-37.65,5.79-3.85,1.06-8.91,3.54-15.34,7.51-5.32,3.28-9.63,5.47-12.82,6.5ZM275.94,494.05c-3.6,1.2-13.88,4.66-13.88,12.5l1.38,12.73,4.46-1.91c4.96-2.12,13.18-4.06,24.45-5.76,12.4-2.09,20.86-4.28,25.92-6.71l.81-.39,1.94-2.64h.61l2.69-1.2,8.54-16.76-6.54.64c-11.15,1.11-20.84,2.41-28.85,3.89v-.1l-1.32.35c-.74.14-3.79.76-3.79.76l-.16.29-16.27,4.31Z"/>
  <polygon class="st0" points="453.97 578.15 453.56 578.15 453.97 577.77 453.97 578.15"/>
  <g>
    <path class="st0" d="M498.9,677.93c.49.43.99.75,1.51.96s1.05.31,1.61.31c1.78,0,3.02-.86,3.71-2.58.7-1.72,1.04-5.12,1.04-10.18,0-3.65-.12-6.62-.37-8.94-.24-2.31-.62-3.98-1.12-5.02.69-.34,1.31-.6,1.86-.76.55-.16,1.06-.25,1.52-.25.79,0,1.32.25,1.6.76.28.51.42,1.73.42,3.65,0,5.14-.04,9.03-.13,11.68-.09,2.65-.23,4.73-.43,6.23-.42,3.01-1.36,5.32-2.82,6.91-1.46,1.59-3.36,2.39-5.68,2.39-1.21,0-2.17-.23-2.9-.7-.72-.47-1.09-1.07-1.09-1.82,0-.42.1-.84.3-1.27s.52-.89.95-1.38Z"/>
    <path class="st0" d="M524.65,681.37c-.67.36-1.32.63-1.94.82-.62.19-1.21.28-1.77.28-.76,0-1.28-.21-1.56-.63-.28-.42-.42-1.24-.42-2.44,0-.62.07-2.57.19-5.85.13-3.28.19-6.27.19-8.97,0-3.46-.1-6.13-.31-8-.21-1.87-.54-3.23-1-4.06.73-.39,1.4-.67,1.99-.86s1.15-.28,1.67-.28c.75,0,1.27.21,1.57.65s.45,1.2.45,2.3c0,.17-.08,1.96-.23,5.35-.15,3.4-.23,6.71-.23,9.96s.11,5.82.32,7.64c.21,1.82.57,3.19,1.05,4.09Z"/>
    <path class="st0" d="M530.73,652.48c.63-.36,1.25-.63,1.86-.82.61-.19,1.21-.28,1.8-.28.76,0,1.28.22,1.56.66.28.44.42,1.32.42,2.66,0,.59-.08,2.34-.24,5.25-.16,2.91-.24,5.53-.24,7.84,0,4.29.61,7.33,1.83,9.11,1.22,1.78,3.27,2.67,6.16,2.67,3.36,0,5.79-1.15,7.3-3.45,1.51-2.3,2.26-6.01,2.26-11.15,0-3.21-.18-5.84-.55-7.88-.37-2.04-.92-3.51-1.65-4.41.63-.43,1.21-.75,1.73-.97.52-.21,1-.32,1.43-.32,1.12,0,1.88.58,2.29,1.75s.61,3.85.61,8.04c0,7.88-1.08,13.51-3.24,16.89-2.16,3.38-5.72,5.07-10.69,5.07-4.09,0-7.04-1.05-8.85-3.17-1.81-2.11-2.71-5.58-2.71-10.42,0-1.08.04-2.61.12-4.59s.12-3.42.12-4.33c0-1.97-.11-3.61-.32-4.92-.22-1.31-.55-2.39-1.01-3.24Z"/>
    <path class="st0" d="M526.38,735.64c-2.63-2.58-6.26-6.58-10.9-11.98s-8.1-9.31-10.4-11.72c.01,5.4.12,11.1.3,17.1.06,1.59.09,2.56.09,2.91,0,1.42-.15,2.35-.45,2.79-.3.44-.86.66-1.68.66-.53,0-1.08-.09-1.66-.28-.58-.19-1.15-.46-1.72-.82.77-1.32,1.32-3.22,1.64-5.7.32-2.48.47-6.84.47-13.1,0-2.94-.18-5.03-.55-6.27s-1.01-2.1-1.93-2.58c.63-.75,1.19-1.28,1.68-1.6.49-.32.98-.48,1.46-.48.46,0,.91.15,1.36.44.44.29.99.82,1.64,1.56.11.13.38.44.8.95,5.5,6.54,11.67,13.63,18.52,21.25.04-2.14.08-4.03.1-5.66.02-1.64.03-3.04.03-4.2,0-3.82-.15-6.73-.45-8.73-.3-2-.8-3.61-1.49-4.81.65-.34,1.23-.6,1.75-.76.52-.16,1.01-.25,1.47-.25.82,0,1.38.24,1.69.72.31.48.46,1.52.46,3.11,0,.95-.08,3.28-.25,6.99s-.25,6.96-.25,9.74c0,1.81.04,3.5.13,5.08s.21,3.06.37,4.44l-2.24,1.23Z"/>
    <path class="st0" d="M550.3,736.01c-2.18,0-4.22-.36-6.13-1.09-1.9-.72-3.58-1.78-5.03-3.15-1.55-1.46-2.72-3.17-3.5-5.1-.78-1.94-1.17-4.11-1.17-6.5s.42-4.51,1.26-6.52,2.08-3.78,3.71-5.32c1.59-1.51,3.45-2.65,5.55-3.42,2.11-.78,4.41-1.16,6.89-1.16,4.87,0,8.76,1.38,11.69,4.13,2.93,2.76,4.39,6.42,4.39,10.98,0,2.25-.4,4.38-1.2,6.38-.8,2-1.96,3.79-3.48,5.35-1.74,1.81-3.69,3.17-5.86,4.07-2.17.9-4.55,1.36-7.15,1.36ZM563.48,719.15c0-3.63-1.09-6.54-3.27-8.72-2.18-2.18-5.1-3.27-8.76-3.27s-6.8,1.16-9.07,3.47c-2.27,2.31-3.4,5.39-3.4,9.24s1.1,6.74,3.29,9.08c2.2,2.33,5.05,3.5,8.57,3.5,3.73,0,6.77-1.23,9.12-3.7,2.35-2.47,3.52-5.66,3.52-9.58Z"/>
    <path class="st0" d="M587.25,736.01c-2.18,0-4.22-.36-6.13-1.09-1.9-.72-3.58-1.78-5.03-3.15-1.55-1.46-2.72-3.17-3.5-5.1-.78-1.94-1.17-4.11-1.17-6.5s.42-4.51,1.26-6.52,2.08-3.78,3.71-5.32c1.59-1.51,3.45-2.65,5.55-3.42,2.11-.78,4.41-1.16,6.89-1.16,4.87,0,8.76,1.38,11.69,4.13,2.93,2.76,4.39,6.42,4.39,10.98,0,2.25-.4,4.38-1.2,6.38-.8,2-1.96,3.79-3.48,5.35-1.74,1.81-3.69,3.17-5.86,4.07-2.17.9-4.55,1.36-7.15,1.36ZM600.42,719.15c0-3.63-1.09-6.54-3.27-8.72-2.18-2.18-5.1-3.27-8.76-3.27s-6.8,1.16-9.07,3.47c-2.27,2.31-3.4,5.39-3.4,9.24s1.1,6.74,3.29,9.08c2.2,2.33,5.05,3.5,8.57,3.5,3.73,0,6.77-1.23,9.12-3.7,2.35-2.47,3.52-5.66,3.52-9.58Z"/>
    <path class="st0" d="M609.72,704.42c1.97-.03,3.94-.08,5.91-.15,1.97-.07,2.98-.11,3.03-.11,5.61,0,10.08,1.33,13.4,4,3.32,2.67,4.98,6.23,4.98,10.68,0,2.38-.49,4.63-1.48,6.75-.98,2.12-2.4,3.97-4.25,5.54-1.71,1.46-3.71,2.57-6,3.3-2.29.74-4.85,1.11-7.68,1.11s-4.78-.23-5.7-.69c-.91-.46-1.37-1.34-1.37-2.65,0-.1.07-1.8.2-5.1.14-3.3.21-6.56.21-9.78,0-3.49-.1-6.25-.31-8.28-.21-2.03-.53-3.58-.96-4.64ZM615.11,707.91c-.1,3.04-.17,5.77-.22,8.19s-.06,4.53-.06,6.32c0,1.58.02,3.12.05,4.62.04,1.5.1,2.96.18,4.38.67.17,1.35.3,2.03.39s1.37.13,2.06.13c4,0,7.24-1.12,9.7-3.36,2.46-2.24,3.69-5.17,3.69-8.81s-1.22-6.53-3.66-8.78c-2.44-2.25-5.61-3.38-9.52-3.38-.79,0-1.54.03-2.24.08-.7.05-1.38.13-2.02.23Z"/>
    <path class="st0" d="M647.08,731.81c.6.06,1.2.1,1.8.13.6.03,1.19.04,1.78.04,2.07,0,3.7-.09,4.89-.28s2.17-.49,2.95-.9c.29.49.5.96.63,1.41s.21.91.21,1.37c0,.69-.25,1.17-.75,1.44-.5.27-1.44.41-2.82.41-.49,0-1.41-.02-2.78-.06-1.36-.04-2.48-.06-3.34-.06-1.22,0-2.45.03-3.68.09s-1.86.09-1.87.09c-.49,0-.83-.11-1.03-.34-.2-.23-.3-.63-.3-1.21,0-.29.04-1.03.11-2.24.26-4.55.39-8.87.39-12.96,0-3.85-.11-6.8-.32-8.85-.21-2.05-.57-3.53-1.05-4.44.66-.36,1.29-.63,1.88-.82.6-.19,1.17-.28,1.73-.28.8,0,1.35.2,1.65.61.29.41.44,1.25.44,2.53,0,.37-.04,1.36-.11,2.97-.26,6.16-.39,11.97-.39,17.44v3.92Z"/>
    <path class="st0" d="M679.53,708.79c-.76-.34-1.68-.6-2.77-.76-1.08-.17-2.46-.25-4.12-.25-.69,0-1.97.02-3.83.07-.46.01-.81.02-1.05.02l-.17,9.52c.39.03.8.04,1.25.04h2.11c1.91,0,3.48-.04,4.73-.13,1.24-.09,2.15-.22,2.72-.39.17.4.3.76.39,1.07.09.31.13.58.13.83,0,.69-.22,1.18-.67,1.49-.45.3-1.18.45-2.2.45-.33,0-1.14-.01-2.44-.04-1.3-.03-2.42-.04-3.37-.04-.72,0-1.27,0-1.66.01-.39,0-.75.02-1.08.03,0,1.62-.02,3.35-.05,5.18s-.09,3.84-.16,6.02c.14,0,.36,0,.65.02,1.88.04,3.22.06,4.03.06,1.54,0,2.85-.09,3.93-.27s2.05-.47,2.9-.87c.32.55.54,1.02.68,1.43.14.41.2.79.2,1.13,0,.76-.25,1.29-.75,1.6-.5.31-1.46.46-2.86.46-.69,0-1.72-.02-3.1-.06s-2.4-.06-3.08-.06c-1.52,0-3.04.04-4.56.11-.32.01-.51.02-.58.02-.5,0-.86-.11-1.07-.34-.21-.23-.31-.63-.31-1.21,0-.3.04-1.07.11-2.3.23-4.45.34-8.62.34-12.51s-.07-6.96-.21-9.28c-.14-2.33-.35-4.07-.63-5.23h2.73c3.36,0,6.81-.11,10.36-.32.76-.04,1.22-.07,1.38-.07,1.16,0,1.96.13,2.39.39.43.26.65.72.65,1.38,0,.37-.08.79-.23,1.26-.15.47-.38.99-.7,1.56Z"/>
    <path class="st0" d="M684.82,730.63c.62.33,1.25.57,1.88.73.64.16,1.32.24,2.03.24,1.71,0,3.05-.38,4.04-1.15s1.47-1.81,1.47-3.13c0-1.58-1.28-3.41-3.85-5.49l-.02-.02s-.11-.08-.19-.15c-3.72-2.97-5.58-5.6-5.58-7.88,0-1.05.23-2.08.69-3.1.46-1.02,1.11-1.95,1.96-2.8,1.28-1.25,2.65-2.2,4.11-2.85,1.46-.65,2.97-.98,4.52-.98,1.12,0,1.96.19,2.52.56.56.37.84.93.84,1.68,0,.26-.09.6-.28,1.02-.19.42-.46.92-.82,1.5-.56-.23-1.13-.41-1.71-.53-.58-.12-1.17-.18-1.78-.18-1.84,0-3.28.41-4.32,1.24-1.04.83-1.56,1.96-1.56,3.39,0,.86.21,1.64.64,2.35.42.7,1.22,1.54,2.38,2.52.17.14.42.35.75.62,3.9,3.27,5.86,6.04,5.86,8.31,0,.86-.15,1.71-.46,2.54-.31.83-.77,1.65-1.39,2.45-1.05,1.33-2.35,2.37-3.91,3.09-1.56.73-3.24,1.09-5.05,1.09-1.22,0-2.14-.21-2.77-.64-.62-.42-.94-1.04-.94-1.86,0-.37.08-.77.23-1.2.15-.42.38-.88.7-1.37Z"/>
  </g>
  <g>
    <path class="st0" d="M593.55,215.34c-3.47-1.46-6.4-2.98-8.72-4.52-1.93-1.28-4.61-8.91-5.17-12.26-.26-1.55.43-2.82,1.31-4.41.54-.99,1.1-2.01,1.47-3.19.39-1.26.56-2.59.73-3.87.14-1.07.27-2.08.51-3.01l.04-.14v-.14c.26-2.58.65-6.09,1.22-10.74.56-4.62,1.02-7.81,1.38-9.73l.5-2.65-2.61.67c-8.26,2.13-15.53,4.13-21.61,5.96-11.3,3.43-18.08,6-20.74,7.85l-.36.25-.72.36c-.63.31-1.04.89-1.31,1.43-.27.13-.7.33-1.41.62h-2.01l-.37,1.11c-.96.64-2.4,2.03-4.65,5.42-1.86,2.69-3.7,4.07-5.45,4.07-.82,0-2.73-.43-6.36-3.34l-1.21-.97-.77.78h-.03c-1.39,0-2.62-.59-3.78-1.79-1.18-1.23-1.75-2.51-1.75-3.93l.73-6.69v-.56c0-.48-.1-1.14-1.42-4.36l-.05-.12-.07-.11c-1.29-2.15-1.43-3.09-1.43-3.39,0-1.69,1.35-3.83,3.9-6.17,2.65-2.31,4.99-3.9,6.92-4.69.44-.18,1.05-.48,1.75-.82,1.12-.55,3.45-1.69,4.14-1.7.46.02,1.13.36,1.84.73,1.09.56,2.44,1.27,4.08,1.3h0c2.17,0,4.18-.78,6.13-1.53,1.72-.67,3.35-1.29,4.71-1.29.24,0,.47.02.7.07l1.53.31.55-.29c1.48-.8,3.72-1.59,6.68-2.36,1.97-.51,3.55-.77,4.7-.77.56,0,.91.06,1.1.12l.96.26.7-.7c.16-.09,1.58-.76,8.99-2.29h1.34l.36-.18c.75-.37,2.89-1.07,8.86-2.27,4.93-.8,7.96-1.74,9.47-2.95l.64-.51v-12.12l-6.82,1.7-.21.12c-1.72.98-4.24,2.65-7.5,4.97h-.57c-.18,0-.69-.09-1.57-.98-1.27-1.03-2.19-1.66-2.92-2.03-.98-1.19-2.12-2.44-3.39-3.72l-.1-.1-.12-.08c-.81-.58-2.08-1.61-3.78-3.06t0,0s-.49-.67-.52-3.47l1.46-4.85-1.98-.99-.49-3.17-1.64.19c-1.79.21-4.7,1.51-11.35,9.73l-8.97,8.77c-.67.67-1.17,1.43-1.51,2.26l-.08.19-.03.21c-.05.25-.44,1.56-3.48,7.69-.83-.07-1.99-.25-2.93-.4.14-.59.37-1.18.62-1.75l.53-1.23-1.06-.81c-.82-.63-1.64-1.15-2.44-1.65-1.05-.66-2.05-1.28-2.89-2.09-.32-.3-.5-.6-.73-.99-.41-.67-.91-1.51-2.12-2.3-.79-.52-1.78-.75-2.65-.96-.51-.12-1.04-.24-1.33-.38-.52-.25-.97-.58-1.46-.92-.74-.53-1.56-1.12-2.69-1.52-.47-.85-1.21-1.39-1.75-1.79-.27-.2-.68-.5-.74-.64,0,.01.02.02.02.02.05,0,.11-.21.16-.35.18-.57.43-1.34.25-2.23-.15-.72-.39-1.4-.61-2-.69-1.91-.62-2.09.22-2.61,1.68-1.05,3.41-1.79,5.24-2.56,2.61-1.11,5.3-2.25,7.76-4.36,4.37-3.75,9.04-7.59,14.28-11.74l.65-.52s0-1.51,0-1.57c.75-.7,1.53-1.66,2.4-2.94,1.41-2.08,2.06-3.68,2.06-5.05,0-2.72-1-5.02-2.97-6.83l-.09-.08c.25-.15.54-.32.88-.51l.87-.49v-1h0s.19-.6,1.5-2.3l.2-.26.09-.31c.17-.58.58-1.21,1.24-1.86t0,0s.93-.56,5.19-2c3.15-1.07,4.74-1.51,5.54-1.68.71.35,1.71.67,3.09.99l.29.06,3.63-.41c.1.01,1.18.2,3.12,2.62,1.63,2.04,3.06,4.39,4.23,6.98,1.29,2.84,1.43,4.17,1.39,4.72l-.24.48v1.15c0,.88-.18,2.2-.52,3.94-.52,1.94-.78,3.32-.78,4.24v.28l.73,2.18.8.27c.36.12.74.19,1.11.19s.74-.06,1.11-.18l.67-.23.09-.19c3.3-.52,7.71-1.85,13.42-4.07l.76-.29.25-.77c.18-.56.27-1.32.27-2.39,0-3.08-.06-5.92-.19-8.45-.12-2.3-.18-5.02-.18-8.09s-.8-5.6-2.37-7.49c-.47-1.83-1.39-3.61-2.74-5.29-.78-.96-1.62-1.66-2.5-2.09.6-.76,1.42-1.79,2.58-3.17l.56-.67-.22-.85c-.02-.06-.08-.39-.12-1.45,1.43-.5,3.42-1.39,6.1-2.72,2.79-1.22,5.05-1.86,6.66-1.86,2.62,0,5.32,1.8,8.04,5.36.97,1.71,2.25,4.12,3.81,7.17,1.49,2.94,2.63,5.28,3.45,7.12-.17.7-.54,2.06-1.34,4.7l-.07.24v.25c-.34.28-.59.58-.75.92l-.08.16s-.1.42-.12.55h-.27l-1.46,1.46-.13.27c-3.32,7.03-3.32,7.3-3.32,7.79v1.26l.45,2.69h1.45c1.41,0,3.34-.18,5.9-.53l.62.12c.27.06.55.08.84.08,1.51,0,3.32-.7,5.07-1.39,1.06-.41,2.15-.84,2.82-.94.79-.13,1.75-.42,2.86-.77,1.53-.47,3.44-1.06,4.69-1.06.49,0,.65.09.67.1.49.42,1.26,2.8,1.63,3.94.28.88.53,1.63.78,2.18.18.39.51.96.88,1.62.53.92,1.76,3.06,1.78,3.73-.12.51-1.39,1.46-2.33,2.16-1.12.84-2.28,1.71-2.94,2.81l2.94,1.76c-.14.24-.57.59-1.18.59-.73,0-1.19-.49-1.28-.72.19.45.32,2.17.23,2.65-.59,1.5-2.62,3.3-4.25,4.75-.48.43-.93.83-1.33,1.21-.63.6-1.27,1.27-1.92,1.96-1.21,1.28-2.47,2.61-3.73,3.43-1.07.69-2.36,1.08-3.73,1.48-1.61.47-3.26.96-4.79,2-4.92.32-8.28,1.45-10.27,3.44l-.34.34-.11.47c-.77,3.21-1.16,6.03-1.16,8.39,0,.87.04,1.55.13,2.11-.09.36-.13.76-.13,1.23,0,1.2.5,2.32,1.43,3.26l.69.68,2.96-.74h2.29l.3.18.48-.18h.61l-.09-.19c3.58-1.25,9.96-2.19,18.98-2.79l2.07-.12c3.48-.2,7.09-.4,10.51-1.2,1.08-.25,2.22-.67,3.31-1.08,1.71-.64,3.47-1.3,5-1.3.6,0,1.13.1,1.61.31,1.05.45,2.8,1.81,4.21,2.9.74.57,1.43,1.11,2,1.51,1.9,1.33,3.2,2.31,3.78,3.8.05.13.1.27.14.43.33,1.15.46,2.21.6,3.32.19,1.48.38,3.01,1.05,4.72,1.01,2.59,1.04,3.87.16,7.24-.36,1.39-1.2,2.99-4.47,2.99-2.98,0-7.08-.43-12.17-1.28-5.67-.76-9.93-1.14-12.73-1.14-13.27,0-24.09,1.47-32.16,4.38l-1.04.37-.08,1.11c-.25,3.22-.38,5.64-.38,7.19,0,10.96,2.32,21.41,6.89,31.06-1.07,2.4-2.04,4.25-2.88,5.52l-2.32,2.84c-4.3,5.44-6.41,7.48-7.39,8.26Z"/>
    <path class="st0" d="M628.26,399.92c-2.07-.02-4.39-.97-6.89-2.82-3.62-2.71-5.49-3.8-6.61-4.27-.26-.76-.57-2.1-.89-4.43-.85-5.8-3.74-8.59-7.83-11-.43-.25-1.05-.65-1.78-1.12-2.59-1.66-4.98-3.15-6.94-4.04.06-.11.12-.23.18-.33.11-.21.23-.43.35-.62.7-1.15,2.17-2,3.94-2.28.6-.09,1.29-.14,2.12-.14.92,0,1.87.05,2.83.1,1.03.06,2.06.11,3.06.11,2.14,0,7.83,0,9.59-6.17,1.9-6.65,2.52-8.44,2.72-8.92l.32-.32v-.71c0-1.43,1.01-7.47,5.81-28.13,4.8-20.63,6.55-26.36,7.18-27.54l.37-.68-1.34-3.56-1.41.27c-8.61,1.63-20.29,5.41-34.7,11.24l-3.45,1.4,3.3,1.71c3.65,1.89,7.38,3.94,11.4,6.26.58.33,1.26.67,1.97,1.02,1.37.67,2.92,1.43,3.69,2.25.78.81.81.95.95,1.62.1.46.23,1.08.56,1.98,1.9,5.16,1.56,7.53.08,12.97l-6.94,3.55c-1.56-.73-3.16-1.51-4.8-2.34-.88-.71-3.45-2.95-10.54-9.47-7.82-7.18-9.49-8.97-9.79-9.39l-.85-1.19-2.73,1.36-.21.72c-.12.43-.63,1.72-2.66,5.63l-.25.47.17,1.32c-1.79,2.46-2.88,5.3-3.26,8.45l3.1,1.2,3.41-4.78c1.11-.43,2.2-.95,3.25-1.55,1.34.1,3.13.77,4.71,4.03l.17.35.3.24s.53.54,1.44,3.02c-.56,1.22-1.05,2.86-1.49,4.96-.38,2,1.07,2.72,10.31,5.15l.62.17c.52.15,1.21.29,1.97.43,1.06.2,2.96.56,3.69,1.02.12.29.29.75.48,1.27.74,1.96,1.24,3.32,1.74,4.2-.18.72-.27,1.64-.27,2.79v.11l.4,3.09c-1.57.89-2.93,2.54-4.1,4.98-1.15.1-2.53.33-4.18.72-4.49-3.83-10.12-8.11-16.75-12.72l-1.18-.82-1.01,1.01c-.76.76-2.69,3.28-10.62,16.25-1.31-.24-2-.52-2.37-.73l-.8-.46h-.02s-2.23-3.41-2.23-3.41l-.13-.13c-.97-.96-2-1.67-3.09-2.11-.33-3.7-2.14-6.29-5.27-7.6,1.61-.76,3.26-1.56,4.93-2.4l.25-.12.19-.2c2.29-2.29,5.24-4.8,8.74-7.46l-2.07-2.73c.11-.08.19-.11.19-.11h-.02c-2.22,0-6.98-2.29-7.85-3.06-1.85-1.64-4.35-4.74-4.53-5.61-.04-1.24,1.82-8.69,2.61-9.77-.06.09-.32.33-.75.41l-.63-3.37c-.98.18-2.89.78-8.26,3.84l-3.2-.21-1.32,1.76-.08.34c-.17.69-.19,1.35-.05,1.95,0,.73.05,1.36.12,1.91l-.33.66.03.46c.12,2.1.61,6.63,1.5,13.86l.02.17.06.16c.34,1.04.95,3.6,1.8,7.61l.34-.04v.02l.14.19-.33.06.19.37.33-.08c-.12.49-.15.77-.15.98,0,1.16.34,3.76,3.24,12.96,2.54,8.09,3.08,11.15,3.08,12.3,0,3.32-7.11,10.41-11.33,10.41-.24,0-.46-.03-.65-.08-.31-.08-.92-.83-1.32-1.33-.64-.79-1.3-1.62-2.23-2.1-1.5-.78-2.76-1.11-3.78-1.37-1.68-.44-2.6-.68-3.91-2.66-1.75-2.66-2.75-6.12-3.71-9.46l-.38-1.31-.15-.55c-.81-3.06-1.33-5.05-1.76-6.33l.92-.61-1.17-1.46c-.89-1.11-2.19-3.64-3.34-9.34-.03-.69-.18-1.63-.5-2.94l.49-1.74-1.11-1.33v-.97l-.56-.93v-.84l-.34-.46c-.29-.39-.58-.76-.91-1.05-.25-1.37-.86-3.13-1.87-5.4-1.37-3.07-2.27-4.47-2.91-5.21l-.18-1.49-2.55-2.55c-.48-1.41-.64-1.74-.69-1.86l-.75-1.57-.59.29c-.8-1.13-1.83-2.45-3.07-3.95-.72-3.54-1.39-6.33-2-8.3-.55-1.75,3-7.11,4.34-9.13.43-.65.8-1.22,1.07-1.65.46-.75.91-1.57,1.37-2.42,2.05-3.74,4.18-7.62,8.11-7.62,0,0,1.86-.2,1.86-.2.69.01,2.63.33,6.84,1.86,4.72,1.71,5.65,2.59,5.78,2.75l.35.41.53.13h0s.4.18,1.45,1.23l.88.88,7.48-3.84,1.22.61,1.51.25h.14c3.18,0,7.06-.76,11.86-2.31,9.31-3.05,10.74-3.43,10.96-3.48l.83-.18.37-.77c.99-2.11,1.8-3.85,2.42-5.22l1.1-2.42h-.79l.03-.18v-.16c0-.33.1-1.54,1.07-5.54l1.16-4.84v-.2c0-3.16.09-3.85.12-3.99l.3-.88-.6-.64c-2.29-2.94-4.16-4.8-5.77-5.72.11-.12.17-.16.18-.16l.59-.4.4-1.98-.5-2.16c1.07-1.98,2.43-3.59,4.05-4.8l.33-.24.18-.36c.07-.13.54-.93,3.39-3.36,2.26-1.94,3.5-2.93,4.17-3.43l4.31-1.03,3.4-.51c.19.02.67.1,1.67.43.45.22,1.06.46,1.88.75,1.04,1.85,2.59,4.2,4.62,7.02l.68.94.71-.18c.45,2.83,1.44,5.24,2.96,7.19l-1.32,2.5c-2.72,5.29-3.76,7.06-4.15,7.6l-.14.19-.08.22c-.46,1.26-1.45,3.65-3.02,7.29-.28.37-.71,1.08-1.54,2.75l-.12.23-.9,5.44,2.8-1.07c3.18-1.22,8.83-3.15,16.81-5.73l23.37-7.05c1.8-.55,3.72-1.58,5.72-3.05l.24-.18.16-.23h.47l.35-.17c.34-.17.72-.25,1.16-.25,1.69,0,3.79,1.19,5.48,2.14.48.27.92.52,1.34.73,3.01,1.56,6.06,3.05,9.12,4.54.81.4,1.63.79,2.44,1.19l.03.16c.25,1.97,1.48,3.37,2.56,4.6.74.84,1.43,1.63,1.7,2.46.2.62.21,1.38.21,2.18,0,1.54.2,3.27.39,4.94.18,1.68.38,3.42.38,4.92,0,.57-.02,1.12-.09,1.64-.15,1.12-1.6,2.7-2.76,3.98-1.34,1.47-2.61,2.86-2.96,4.37-4.52,4.7-7.19,8.53-8.15,11.69-.3.65-.98,2.34-2.99,8.24-3.49,11.23-6.63,24.16-9.35,38.5-.51,1.89-.77,6.11-.77,12.77-.12,4.97-.56,8.68-1.31,10.99-.73,2.25-2.34,4.87-4.79,7.79-3.65,4-5.26,6.03-6.02,7.19ZM550.81,351.4l1.03-.11-.84.15-.18-.04Z"/>
    <path class="st0" d="M670,595.36c-.54,0-.98-.1-1.36-.31-1.03-.55-2.25-.81-3.77-.81-.25,0-.51,0-.78.02-6.17-1.81-11.66-3.9-16.98-5.92-5.26-2-10.23-3.89-15.2-5.24-2.52-.68-5.2-.82-7.79-.96-2.24-.11-4.36-.22-6.1-.68-4.27-1.12-8.26-2.15-11.96-3.08-2.45-.62-6.32-1.68-10.17-2.75-4.5-1.24-8.75-2.41-10.99-2.94-16.43-3.91-19-6.42-19.84-7.24-.24-.24-.49-.48-.84-.68l-1.23-.7-.92,1.07c-1.11,1.3-2.43,4.11-4.17,7.95-.57,1.26-1.11,2.45-1.56,3.36-1.51,3.04-3.53,7.37-6.01,12.86-.25.29-.7.67-1.49,1.11-1.08-.32-2.94-.94-5.55-1.83l-.06-.02.33-1.23-.19-.51c-1.65-4.39-2.38-8.13-2.28-11.76.04-1.5.15-6.07,1.55-7.78.36-.44.88-.78,1.48-1.17.47-.31.95-.62,1.4-1,1.55-1.28,2.91-2.84,4.22-4.34.51-.59,1.02-1.17,1.53-1.72l.8-.87-.54-1.06c-.25-.49-.78-1.17-2.58-2.88-1.38-1.3-2.38-2.19-3.07-2.72l-.72-.55-.87.29c-2.74.92-4.72,3.73-6.31,5.99-.3.43-.59.84-.87,1.21-.83,1.11-1.73,2.15-2.68,3.25-1.15,1.33-2.33,2.7-3.38,4.2-3.62,5.16-6.03,11.05-8.18,16.64-1.84,4.77-3.56,6.91-4.82,7.85-.87-.98-2.14-2.13-3.87-3.5l-.62-.64.06-.5c0-1.58-.11-3.11-.96-4.77-.36-.7-.78-1.32-1.18-1.92-.17-.25-.34-.5-.5-.75-.52-.81-.97-1.68-1.43-2.55-.79-1.51-1.6-3.06-2.74-4.41.36-.37.69-.74,1.03-1.1.67-.73,1.29-1.43,1.99-1.95.58-.43,1.19-.82,1.8-1.21.96-.62,1.96-1.26,2.91-2.08,3.23-2.8,6.3-6.33,9.39-10.79l7.91-9.23.06-.09c.62-.94,2.51-3.39,5.63-7.3l4.64-5.77-4.05.39c-3.99.39-8.69,1.88-13.97,4.44-9.6,4.72-17.66,11.41-23.97,19.89h-.05c-1.21-.04-2.36-1.34-3.14-2.43l-3.31-5.9-.07-.09c-.64-.85-1.6-1.8-2.93-2.89-1.11-.79-1.47-1.36-1.47-1.65,0-1.5.33-3.02.98-4.53.81-1.76,1.27-3.22,1.39-4.42,0-.84.12-2.3.64-5.4.26-.33.99-.98,1.35-1.3.45-.4.83-.76,1.03-.99l.34-.4c.25-.3.54-.64.64-.71.2.06.49.09.87.12,1.55.14,3.09.35,4.63.56,2.29.31,4.66.63,7.07.74h0c1.37,0,2.44-.61,3.39-1.15.53-.3,1.26-.71,1.57-.71l1.87.35,1.04-1.03c1.46-.81,3.66-1.39,6.53-1.71.08,0,.16,0,.23,0,1.03,0,2.13-.07,3.13-.19l.46-.06.54-.41,1.9.84.31-1.67c.21-.09.61-.24,1.3-.4,1.37-.28,2.21-.46,2.77-.65l1.94.29.57-1.02c1.94-.31,4.64-1.17,8.22-2.61.05-.02.24-.1.87-.17.73-.07,1.69-.31,2.94-.73l1.83-.61-.82-1.74c-.2-.43-.53-1.52-.53-4.1v-1.71h-1.71c-1.31,0-2.68.53-4.21,1.62-.82.59-1.3.83-1.53.92-.29-.17-.93-.62-2.19-1.74-.91-.81-1.98-1.29-2.93-1.73-.65-.3-1.27-.58-1.77-.92,0-.05,1.01-5.92,1.01-5.92,3.1-2.47,6.79-3.51,10.7-4.61l1.97-.56.24-2.86c0-1.37-.14-2.75-.44-4.36l-.31-1.66-1.66.29c-2.31.4-5.02,1.36-8.27,2.93-3.35,1.74-5.66,3.28-7.06,4.72-1.39.53-2.82,1.44-4.36,2.74-1.94-.51-2.81-.63-3.32-.65-.44-.48-1.13-1.37-2.12-3.03-.2-1.58-.53-3.22-.98-4.9l-.18-.69-.62-.35c-2.02-1.15-3.04-3.9-3.04-8.17,0-1.37.45-2.7.93-4.11.22-.66.45-1.33.64-2.01.14-.52.27-1.01.39-1.5.44-1.74.82-3.25,1.81-4.79l2-3.13c.57-.9.82-1.88,1.03-2.75.18-.7.34-1.37.62-1.72.4-.49,1.17-.74,2.3-.74.64,0,1.38.08,2.21.25.5.1.98.21,1.44.32,1.29.3,2.51.58,3.9.58.79,0,1.56-.09,2.35-.29.4-.09.66-.12.82-.13l1.1.99,1.12-1.49s.42-.42,2.3-1.22c.21.03.43.05.66.05h.86l.25-.34.86.38,1.48,1.97.68-2.74,2.2.42-.48-2.57c.31-.64.47-1.37.47-2.18v-.12l-.02-.12c-.3-2.12-.95-4.34-1.94-6.58l-.92-2.95c.23-1.37.27-2.51.11-3.46.18-1.3.57-2.78,1.14-4.41.06-.21.29-.77,1.37-2.07.95-1.14,1.57-2.23,1.89-3.32.66-.6,1.27-1.34,1.83-2.19l.53.1.6-.43c1.92-1.38,3.81-2.53,5.64-3.43.39.14.7.24.95.3,1.26,1.37,2.81,3.95,4.6,7.68,2.23,4.63,2.69,6.9,2.69,7.99,0,.35-.03.65-.09.88-.13.51-.19,1.13-.19,1.9,0,.28.05.65.24,1.42l-.92,1.05.34,1.83-.44,1.18-.27,1.46.26.52c.29.56.65,1.05,1.09,1.44l1.87,1.65.88-2.35c.29-.05.74-.12,1.46-.18h.03c1.44,0,2.7-.38,3.64-1.14.38-.13.77-.23,1.16-.33.64-.17,1.27-.34,1.87-.58.27-.11.48-.25.65-.42l.08.27c.66-.15,1.34-.29,2.09-.43l.35-.06.3-.19c.15-.1.29-.2.41-.3.91-.15,1.83-.27,2.74-.4.74-.1,1.47-.2,2.19-.31.54.81,1.25,1.5,2.07,2.02-.25,1.21-.32,2.72.56,4.05l.26.42c.59.97,1.09,1.75,1.76,2.19-.06.28-.07.55,0,.81l.31,1.18,1.22.1c.31.02.63.04.94.04,2.35,0,4.73-.63,7.04-1.23,2.16-.57,4.2-1.1,6.05-1.1.66,0,1.24.07,1.79.21l1.1.28.19-.26.08.1,1.26-.35.13-.05c.32-.04.9-.16,2.15-.46,2.75-.64,8.44-1.67,16.91-3.08,7-1.2,17.06-3.89,29.91-8,1.34-.16,3.56-.77,6.78-1.86.42-.18.77-.24,1.21-.24,1,0,2.25.3,3.36.56.14.03.28.07.41.1.03,2.18.36,4.34,1.85,6.06.12.13.24.26.36.39.14.15.35.37.39.46-.02.14-.36.69-.56,1.02-.61,1-1.53,2.5-.65,4.18.26.5.62.83.87,1.08.08.07.17.14.23.23.13.18.06.99.03,1.25-.08.82-.11,1.67-.14,2.54-.11,2.86-.21,5.56-2.05,7.11-1.53,1.28-2.38,1.47-2.75,1.47-.21,0-.87-.04-2.6-.44l-.2-.04-2.98-.32h-.07c-7.51,0-16.65,1.62-27.33,4.79l-1.23.36v1.28c0,2.11.56,4.13,1.66,6.04-1.76,4.32-2.77,7.89-3.02,10.62l-.08.93,2.07,1.64,3.86-1.27c1.57-.65,3.41-1.21,5.6-1.73,4.17-.45,8.19-1.48,11.93-3.05l.17-.07.15-.1c2.16-1.49,4.32-2.17,7.46-2.34.24-.01.47-.02.7-.02,1.38,0,3.36.24,4.95,1.39.63.45,1.22,1.06,1.79,1.65l3.69,3.8c.81.83,1.48,1.58,1.57,2.31.04.28,0,.56-.01.85-.03.44-.05.88-.01,1.32.16,1.83,1.21,3.17,2.13,4.35.45.58.88,1.13,1.17,1.67.29.59.12,1.63-.04,2.54-.11.69-.23,1.41-.23,2.13v1.82c-.59,1.04-1.13,2.32-1.6,3.82-3.17.57-5.26,2.08-6.23,4.49l-.44,1.11c-1.87,1.47-3.66,3.73-5.42,6.85-.88,1.74-2.53,5.39-4.93,10.93-.82,1.61-2.11,4.77-3.89,9.55l-.05.13-1.52,7.81c-.91,3.18-1.95,7.59-3.05,12.99l-1.82.79,1.35,3.15s.23-.09.91-.09c.84,0,1.89.13,2.82.25.72.09,1.37.17,1.86.19,2.11.09,4.21.13,6.32.14.22,0,.82,0,.96.09.07.05.21.29.31.44.19.29.42.66.76,1,1.23,1.24,3.07,1.39,4.35,1.39.9,0,1.84-.09,2.69-.17.59-.06,1.13-.11,1.56-.11h.04c.43,0,.54.02.57.03.14.05.45.4.62.59,2.1,2.36,3.84,4.51,4,6.96.02.35.02.72.01,1.08-.01,1.42-.03,3.19,1.25,4.58.43.47.92.79,1.36,1.08.18.12.42.28.57.4-.07.1-.2.25-.43.49-2.92,2.89-8.89,7.79-12.71,7.79h0ZM626.4,559.41c-3.13,0-6.51.52-10.05,1.54-2.61.67-4.81,1.58-6.49,2.67l-4.04,2.64,4.8.49c9.74,1.01,20.93,1.79,33.24,2.33l2.69.12-1.87-4.49-1.37-.9h-.79l-.62-.16s-.31,0-.36,0c-.36-.48-.63-1.03-.82-1.69l-.19-.67-.6-.35c-1.23-.72-3.88-1.54-13.55-1.54ZM567.73,556.25l1.71,1.34c1.61,1.26,7.47,4.49,27.06,7.41l3.8.57-2.12-3.21c-.23-.35-.5-.74-.79-1.15l-.3-1.19-1.1-.26c0-.06.05-.3.05-.3v-.13c0-.33.05-.62.14-.86l.19-.49-.12-.51c-.92-3.97-2.33-8.44-4.17-13.27-2.36-5.97-4.61-9.91-6.89-12.06l-.12-.12-5.47-3.43c-.1-.14-.42-.64-.95-2.03l-.18-.49-.43-.3c-2.83-1.99-6.26-3-10.2-3l-2.62.02-6.95,2.68-.3.39c-1.17,1.55-2.2,3.2-3.08,4.88l2.51,2.19c2.67-1.89,4.91-3.2,6.67-3.89,1.6-.62,3.19-1.01,4.73-1.15.78.31,1.58.47,2.4.47.26,0,.53-.02.79-.05.91.55,2.04,1.44,3.37,2.65l.64,2.54.17.07c0,1.59.21,3.05.62,4.34-.4,1.42-1.1,3.47-2.11,6.1-1.21,3.15-1.67,4.09-1.82,4.36l-.04.03-.13.19c-.78,1.16-1.73,3.13-2.92,6.02l-2.04,1.63ZM563.33,538.55c-3.35,0-7.35,2.14-12.22,6.53l-1.29,1.17,1.19,1.27c.58.62,1.87,1.76,6.38,4.46l1.59.95,1.49-2.98v-.41c0-.82.08-1.23.14-1.41l2.03-1.08v-1.48c.3-1.24,1.01-2.71,2.12-4.37l1.78-2.67h-3.21ZM599.8,531.27l.04.26c.42,2.66,1.1,5.69,2.03,9.01l2.74,10.42,1.51-.22c1.58-.23,3.66-.73,6.34-1.52l1.68-.5-1.78-5.53c.16-1.03.39-2.35.68-3.96l.06-.34-5.41-24.69-1.67.36c-1.67.36-2.93.8-3.85,1.34-.71.41-1.27.99-1.68,1.74l-.23.07c-.78.26-1.44.93-2.19,2.25l-.12.2-.51,2.01.48.63c.41,2.83,1.08,5.46,1.99,7.84l-.09.63ZM626.6,537.24c-2.1.36-4.47,1.31-7.04,2.82l-.77.45-.34,4.19.22,1.45,1.15,1.51h.85c1.44,0,3.6-.45,6.6-1.38l1.21-.37v-3.28c.08-.69.12-1.44.12-2.23v-3.5l-2,.34ZM636.34,545.02l6.27-.94.39-.84c3.07-6.69,5.73-13.45,7.7-18.6.29-.75.6-1.51.91-2.27,1.13-2.77,2.29-5.64,2.73-8.66.19-1.32,1.83-7.88,2.46-8.86-.09.14-.51.55-1.18.55v-3.43c-6.48,0-11.87.81-16.03,2.4l-1.1.42v1.83c-.09,1.37.4,3.1,1.49,5.19-3.88,6.89-5.93,17.32-6.09,31.02v.94s1.45.96,1.45.96c0,0,.7,0,.79,0l.22.3ZM627.64,521.23c-2.24,0-4.63,1.03-7.28,3.15l-.45.36-.14.56c-.27,1.07-.45,2.1-.54,3.04l-.04.45,1.15,2.53,1.39-.35c7.65-1.94,7.8-1.98,7.59-3.65l-.06-.5.15-5.59h-1.76ZM627.82,507.03c-3,.12-5.59,1.01-7.69,2.64l-1.04.81,1.98,4.69,2.2,1.23,6.1-3.24.18-.74c.12-.48.18-1.16.18-2.22,0-.81-.06-1.41-.18-1.89l-.34-1.35-1.39.06ZM576.04,487.77c.38.42.73.82.93,1.21.92,1.87,0,6.68-1.52,7.81-1.56,1.17-4.86,2.15-7.04,2.8l-7.6,2.32-.3.79c-.7,1.86-1.05,4.13-1.08,6.96l-.02,2.05,2.02-.34c1.8-.3,3.04-.68,3.68-1.61.19-.29.3-.57.35-.84l.23.15,1.04-1.11c.43-.07.91-.22,1.49-.49l3.4-1.77c.18.03.35.04.52.04,1.08,0,1.87-.53,2.45-.92.18-.12.36-.25.56-.35.91-.44,1.15-.5,2.07-.5,0,0,1.84.02,2.57.02,4.36,0,9.59-.21,15.24-1.78,2.99-.83,5.97-1.67,8.95-2.52,9.63-2.75,10.09-2.99,10.4-3.15l.78-.41.12-.87c.25-1.73.57-3.49.97-5.25.53-2.67.79-4.55.79-5.76,0-1.87-.37-3.49-1.11-4.83l.88-1.73-2.81-1.23s-.69.06-.78.06c.37.02,1.06.43,1.25,1.23.19.8-.27,1.47-.65,1.69l-1.6-3.03c-.14.07-.65.3-2.06.86-4.59,1.83-8.47,3.71-11.52,5.6-1.09.78-2.75,2.28-5.15,4.64-1.14.99-2.69,1.81-4.57,2.39-2.47-.6-3.23-1.16-3.45-1.39-.06-.06-.38-.49-.64-2.31-.49-1.97-1.1-3.5-1.85-4.73l-2.54-3.97c-.15-.41-.34-1.14-.45-2.39l-.18-1.96-1.91.45c-1.53.36-3.51.87-6.32,1.64l-.17.05-.16.08c-1.13.58-2.71,1.24-4.69,1.96l-3.08,1.23-.2.16c-1.35,1.08-2.04,2.84-2.04,5.24,0,.9.16,1.93.48,3.07l.51,1.8s7.44-2.83,7.6-2.89c1.6-.61,2.3-.8,3.58-.8.1,0,.19,0,.29,0l2.33,2.61Z"/>
  </g>
</svg>