<?xml version="1.0" encoding="UTF-8"?>
<svg id="_圖層_1" data-name="圖層_1" xmlns="http://www.w3.org/2000/svg" version="1.1" viewBox="0 0 800 792">
  <!-- Generator: Adobe Illustrator 29.6.1, SVG Export Plug-In . SVG Version: 2.1.1 Build 9)  -->
  <defs>
    <style>
      .st0, .st1 {
        fill: #2e2624;
      }

      .st1 {
        font-family: MaiandraGD-Regular, 'Maiandra GD';
        font-size: 36.28px;
        letter-spacing: .03em;
      }
    </style>
  </defs>
  <g>
    <polygon class="st0" points="558.93 372.32 558.73 372.25 558.38 372.37 558.5 372.6 558.73 372.37 558.93 372.32"/>
    <path class="st0" d="M545.67,374.42c-.49-1.24-1.51-1.99-2.72-2.84-1.09-.76-2.91-2.36-4.04-2.84-2.17-.94-4.74.74-6.83,1.23-2.46.57-5.13.63-7.64.8-5.84.39-9.92,1-12.23,1.85-.39-.23-.77-.35-1.15-.35l-.26.07.15.05.12.23h-.69l-1.38.35c-.39-.38-.58-.81-.58-1.27,0-.31.04-.54.12-.69-.08-.31-.12-.77-.12-1.38,0-1.38.23-3.04.69-4.96,1.08-1.08,3.08-1.69,6-1.85,1.63-1.25,3.81-1.21,5.5-2.31,1.33-.86,2.51-2.37,3.66-3.46s3.15-2.6,3.76-4.19c.17-.45-.05-3.24-.55-2.4.7-1.18,3.12-2.12,3.41-3.49.18-.85-1.36-3.1-1.74-3.92-.43-.94-1.04-3.75-1.92-4.27-1.26-.74-4.42.72-5.81.94-1.32.21-3.82,1.65-5.03,1.41l-.58-.11c-1.61.23-2.85.35-3.69.35l-.11-.69v-.69c0-.15.65-1.61,1.96-4.38l.46-.46h.81c-.08-.38-.08-.73,0-1.04.08-.15.27-.31.58-.46v-.58c.54-1.77.85-2.88.92-3.35-.54-1.23-1.31-2.83-2.31-4.79-1-1.96-1.81-3.48-2.42-4.56-1.92-2.54-3.88-3.81-5.88-3.81-1.15,0-2.69.42-4.61,1.27-2.15,1.08-3.62,1.69-4.38,1.85,0,1,.04,1.65.12,1.96-1.54,1.85-2.42,3-2.65,3.46.92-.23,1.79.15,2.6,1.15.81,1,1.33,2.04,1.56,3.11.92,1,1.38,2.38,1.38,4.15,0,1.92.04,3.62.11,5.07.08,1.54.12,3.27.12,5.19,0,.54-.04.92-.12,1.15-3.77,1.46-6.65,2.31-8.65,2.54l-.11.23c-.23.08-.46.08-.69,0l-.23-.69c0-.46.15-1.27.46-2.42.23-1.15.35-2.04.35-2.65v-.46l.12-.23c.15-.77-.16-2-.92-3.69-.77-1.69-1.69-3.21-2.77-4.56-1.08-1.34-2.04-2.02-2.88-2.02l-2.08.23c-1-.23-1.65-.46-1.96-.69-.62.08-1.94.46-3.98,1.15-2.04.69-3.25,1.19-3.63,1.5-.54.54-.88,1.08-1.04,1.61-.77,1-1.15,1.69-1.15,2.08-1.23.69-1.89,1.19-1.96,1.5-.23.31-.35.58-.35.81l1.61-.23c1,.92,1.5,2.08,1.5,3.46,0,.62-.37,1.46-1.1,2.54-.73,1.08-1.37,1.77-1.9,2.08v.12h.11c.08.08.12.19.12.35,0,0,0,.35,0,.35-3.01,2.38-5.99,4.81-8.9,7.32-2.4,2.06-5.28,2.53-7.94,4.2-1.76,1.1-.54,2.49-.23,3.98.12.6-.44,1.23-.21,1.78.33.81,1.56,1.02,1.72,1.98,1.29.27,1.87,1.09,2.92,1.6.64.31,1.75.37,2.35.76.95.62.9,1.24,1.62,1.92,1.03.97,2.26,1.52,3.4,2.39-.34.79-.61,1.57-.55,2.39.36.07,3.51.64,3.63.4,1.61-3.23,2.46-5.11,2.54-5.65.15-.38.38-.73.69-1.04l5.65-5.54c2.92-3.61,5.04-5.5,6.34-5.65l.23,1.5.92.46-.69,2.31c0,1.61.23,2.65.69,3.11,1.08.92,1.88,1.58,2.42,1.96.84.85,1.57,1.65,2.19,2.42.38.15.96.54,1.73,1.15.61.62,1.19.92,1.73.92h.69c2.15-1.54,3.77-2.61,4.84-3.23l2.77-.69v5.65c-.77.62-2.58,1.15-5.42,1.61-3.08.62-5,1.12-5.77,1.5h-.69c-3.77.77-5.84,1.35-6.23,1.73-.85-.23-2.23-.1-4.15.4-1.92.5-3.38,1.02-4.38,1.56l-.58-.12c-2.25-.45-5.01,1.74-7.36,1.69-1.44-.03-2.52-1.22-3.66-1.26-.9-.03-3.18,1.27-4.1,1.64-1.31.54-2.85,1.58-4.61,3.11-1.85,1.69-2.77,3.23-2.77,4.61,0,.62.35,1.5,1.04,2.65.54,1.31.81,2.08.81,2.31v.23l-.46,4.27c0,1.15.46,2.21,1.38,3.17.92.96,1.96,1.44,3.11,1.44.31,0,.5-.04.58-.12,1.92,1.54,3.46,2.31,4.61,2.31,1.46,0,2.88-1,4.27-3,1.23-1.85,2.19-2.92,2.88-3.23l.12-.35h.69c.77-.31,1.27-.54,1.5-.69.15-.38.31-.62.46-.69l.46.23.35-.69c1.54-1.08,5.73-2.65,12.57-4.73,3.84-1.15,8.3-2.38,13.38-3.69-.23,1.23-.52,3.27-.86,6.11-.35,2.85-.6,5.08-.75,6.69-.36,1.37-.35,2.91-.76,4.23-.55,1.79-2.1,3.16-1.76,5.21.31,1.89,2,7.21,3.67,8.32,1.61,1.08,3.65,2.11,6.11,3.12.92-.46,2.69-2.35,5.31-5.65l1.5-1.85c.61-.92,1.31-2.27,2.08-4.04-2.92-6-4.38-12.42-4.38-19.26,0-.92.08-2.38.23-4.38,4.92-1.77,11.46-2.65,19.61-2.65,1.69,0,4.27.23,7.73.69,3.23.54,5.81.81,7.73.81,2.08,0,3.35-.88,3.81-2.65.57-2.19.61-3.23-.14-5.15-.66-1.7-.48-3.11-1-4.91-.04-.12-.08-.24-.12-.35Z"/>
    <path class="st0" d="M670.2,353.11c0-1.95-.46-4.28-.48-6.13,0-.57,0-1.14-.18-1.68-.52-1.58-2.39-2.54-2.6-4.19.27.07.57-.04.73-.26-2.83-1.4-5.69-2.75-8.49-4.2-1.56-.81-4.01-2.56-5.91-1.64-.39,0-.62.04-.69.12l-.23.35c-1.15.85-2.23,1.42-3.23,1.73l-14.53,4.38c-5,1.61-8.5,2.81-10.5,3.58l.23-1.38c.46-.92.77-1.46.92-1.61,1-2.31,1.65-3.88,1.96-4.73.38-.54,1.27-2.15,2.65-4.84l1.15-2.19c-1.31-1.38-2.04-3.27-2.19-5.65l-.92.23c-1.38-1.92-2.38-3.46-3-4.61-.69-.23-1.19-.42-1.5-.58-.69-.23-1.19-.35-1.5-.35l-2.31.35-2.88.69c-.54.39-1.48,1.15-2.83,2.31-1.35,1.15-2.13,1.96-2.36,2.42-1.23.92-2.23,2.15-3,3.69l.35,1.5-.11.58c-.23.15-.5.46-.81.92l-.23.69c.92-.08,2.34,1.12,4.27,3.58-.08.23-.12,1.15-.12,2.77l-.69,2.88c-.46,1.92-.69,3.15-.69,3.69l-.23,1.27h.11c-.39.85-.88,1.92-1.5,3.23-.39.08-2.69.81-6.92,2.19-2.85.92-5.19,1.38-7.04,1.38l-.69-.12-.92-.46h-.35l-4.27,2.19c-.62-.61-1.08-.96-1.38-1.04-.46-.54-1.81-1.21-4.04-2.02-2.23-.81-3.81-1.21-4.73-1.21,0,0-1.04.12-1.04.12-3.71,0-5.2,4.11-6.8,6.74-.93,1.53-4.06,5.67-3.47,7.56.38,1.23.81,3,1.27,5.31,1.15,1.38,2,2.5,2.54,3.34l.23-.11c.08.15.23.58.46,1.27l1.5,1.5.11.92c.46.39,1.08,1.44,1.85,3.17.77,1.73,1.15,2.98,1.15,3.75,0-.31.23-.15.69.46v.46l.35.58v.69l.58.69-.23.81c.23.92.35,1.58.35,1.96.61,3.08,1.38,5.19,2.31,6.34l-.35.23c.18-.12,1.43,4.76,1.49,4.97.67,2.29,1.34,4.95,2.67,6.97,1.6,2.43,2.84,1.66,5.17,2.86.85.44,1.46,1.97,2.43,2.22,3.1.8,8.77-4.55,8.77-7.45,0-1.15-.65-3.81-1.96-7.96-1.31-4.15-1.96-6.73-1.96-7.73,0-.15.08-.46.23-.92l-.34-.35v-.12l-.12.23v.12l-.12-.23v.11c-.54-2.54-.92-4.15-1.15-4.84-.54-4.38-.85-7.23-.92-8.54l.23-.46c-.08-.38-.12-.88-.12-1.5-.08-.23-.08-.5,0-.81l.35-.46,1.73.12c2.54-1.46,4.23-2.27,5.07-2.42-.67.13-2.15,6.31-1.99,7.07.21,1.01,2.19,3.22,3.15,4.07.83.74,5.14,2.75,6.11,2.02-2.23,1.69-4.08,3.27-5.54,4.73-2.15,1.08-4.19,2.04-6.11,2.88,3.85,0,5.77,1.69,5.77,5.07.77.15,1.5.58,2.19,1.27l1.5,2.31-.46.92,1.15-.58c.54.31,1.38.54,2.54.69,3.85-6.3,6.11-9.8,6.81-10.5,4.31,3,7.88,5.73,10.73,8.19,1.54-.38,2.73-.58,3.57-.58.85-2,1.85-3.15,3-3.46l-.35-2.65c0-1,.11-1.65.35-1.96-.29.38-1.61-3.69-1.76-3.84-.79-.78-3.03-.95-4.08-1.25-.48-.14-6.14-1.55-6.04-2.06.3-1.46.65-2.54,1.04-3.23-.54-1.54-1-2.46-1.38-2.77-1-2.08-2.39-3.11-4.15-3.11-.77.46-1.58.85-2.42,1.15l-2.31,3.23c.23-1.92.92-3.61,2.08-5.08l-.12-.92c1-1.92,1.57-3.15,1.73-3.69l.46-.23c.38.54,2.46,2.54,6.23,6,3.77,3.46,6,5.46,6.69,6,1.23.62,2.42,1.19,3.58,1.73l5.19-2.65c1.04-3.81,1.38-5.54.04-9.15-.52-1.42-.11-1.5-1.17-2.6-.88-.92-2.64-1.57-3.75-2.21-2.35-1.36-4.72-2.67-7.12-3.91,8.92-3.61,16.03-5.92,21.34-6.92l.35.92c-.62,1.15-2.13,6.94-4.56,17.36-2.42,10.42-3.63,16.32-3.63,17.71-.15.15-.77,2.12-1.85,5.88-1.32,4.63-6.54,2.47-10.07,3.03-1.26.2-2.52.82-3.19,1.91-.4.66-.7,1.56-1.47,1.69,1.33-.21,5.59,2.8,6.92,3.58,2.51,1.48,3.9,3.04,4.35,6.06.23,1.69.5,2.84.81,3.46.69.15,2.11,1.04,4.27,2.65,1.77,1.31,3.42,1.96,4.96,1.96h.58c.23-.62,1.54-2.23,3.92-4.84,1.61-1.92,2.67-3.65,3.17-5.19.5-1.54.79-3.92.87-7.15,0-4,.15-6.58.46-7.73,1.69-8.92,3.61-16.84,5.77-23.76,1-2.92,1.62-4.61,1.85-5.08.54-1.85,2.23-4.23,5.07-7.15,0-1.49,3.34-3.55,3.6-5.53.05-.36.07-.75.07-1.15Z"/>
    <path class="st0" d="M678.57,330.72c.57-.22-.08-.02,0,0h0Z"/>
    <path class="st0" d="M798.47,412.31c-.67-.73-.44-1.87-.51-2.86-.12-1.92-1.47-3.52-2.75-4.96-.24-.27-.49-.54-.82-.66-.24-.09-.5-.09-.75-.08-1.2,0-3.65.57-4.58-.37-.3-.3-.44-.74-.78-.99-.34-.26-.8-.27-1.23-.27-1.3,0-2.59-.03-3.89-.09-.96-.04-3.08-.5-3.94-.13,0,0,1.65-.72,1.65-.72.72-3.58,1.39-6.45,2.01-8.61l.93-4.76c1.08-2.9,1.88-4.86,2.39-5.88,1.49-3.45,2.5-5.67,3.01-6.69,1.49-2.63,3.01-4.22,4.55-4.76l-.08-.4h-.23l-.31.1h-.23c.51-1.28,1.75-2.03,3.71-2.23.36-1.28.77-2.3,1.23-3.04v-1.42c0-1.02.54-2.37.09-3.3-.01-.03-.03-.06-.04-.09-.6-1.16-1.82-2.04-1.94-3.34-.04-.46.07-.93.01-1.38-.1-.81-.7-1.46-1.27-2.04-.76-.79-1.53-1.57-2.29-2.36-.4-.41-.79-.82-1.25-1.15-1.19-.86-2.73-1.13-4.19-1.05-1.98.11-3.57.53-5.18,1.64-2.26.95-4.66,1.56-7.18,1.82-1.44.34-2.65.71-3.63,1.11l-1.85.61-.39-.3c.16-1.69.82-3.95,2.01-6.79-.77-1.15-1.16-2.36-1.16-3.65,6.59-1.96,12.12-2.94,16.6-2.94l1.85.2c.87.2,1.49.3,1.85.3.67,0,1.47-.39,2.39-1.16,1.91-1.6,1.52-4.41,1.74-6.7.05-.52.09-1.08-.22-1.5-.18-.25-.46-.41-.6-.68-.51-.97,1.13-1.98.83-3.03-.11-.37-.43-.63-.69-.92-.9-1.04-.91-2.55-.88-3.93-1.31-.21-3.28-.96-4.51-.4-2.01.68-3.37,1.05-4.09,1.11-8.03,2.57-14.2,4.22-18.53,4.97-5.3.88-8.83,1.52-10.58,1.93-.97.24-1.27.28-1.32.27-.06.02-.13.05-.22.08-.16-.2-.28-.3-.39-.3-.21,0-.41.14-.62.41-3.04-.78-6.78,1.51-10.01,1.27-.07,0,.51-.84.64-.93-.39-.34-.8-.01-1.08-.19-.32-.21-.73-.98-.96-1.33-.48-.72-.24-1.67.02-2.49-.88-.3-1.62-1-1.96-1.86-1.34.23-2.76.38-4.12.61-.1.1-.21.2-.37.3-.48.09-.92.18-1.34.27.45-.17,1.02-.37,1.41-.52-.34.06-.69.13-1.02.2-.2.05-.4-.19-.63-.12-.25.08-.16.49-.37.57-.65.26-1.37.36-2.03.62-.4.39-1.01.58-1.82.58-.92.08-1.47.19-1.65.35l-.17.46c-.17-.15-.32-.35-.43-.58l.09-.46.35-.92-.17-.92.61-.69c-.17-.61-.26-1-.26-1.15,0-.38.03-.69.09-.92.06-.23.09-.5.09-.81,0-1.15-.59-2.96-1.78-5.42-1.18-2.46-2.21-4.15-3.08-5.08l-.09-.23c-.06.08-.49-.04-1.3-.35-1.33.62-2.69,1.42-4.07,2.42l-.61-.12c-.46.85-.98,1.5-1.56,1.96-.12.62-.46,1.27-1.04,1.96-.58.69-.92,1.23-1.04,1.61-.4,1.15-.66,2.19-.78,3.11.12.54.09,1.27-.09,2.19l.69,2.19c.58,1.31.95,2.58,1.13,3.81,0,.46-.12.85-.35,1.15l.09.46-.61-.12c-.17.08-.29.23-.35.46l-.52-.69v.69l-.26-.12-.17-.23h-.35l-.35.46c-.23,0-.43-.04-.61-.11l-.09.11c-1.1.46-1.76.85-1.99,1.15-.17-.15-.61-.15-1.3,0-1.57.39-2.74-.08-4.31-.39-1.18-.24-2.96-.41-3.84.68-.61.76-.54,2.01-1.09,2.87-.41.65-.83,1.3-1.24,1.94-.89,1.39-1.07,2.67-1.49,4.19-.38,1.37-1.01,2.63-1.01,4.08,0,3.08.81,5.08,2.43,6,.29,1.08.49,2.12.61,3.11.81,1.38,1.47,2.27,1.99,2.65.11-.15,1.01,0,2.68.46,1.1-1,2.11-1.65,3.03-1.96.75-.84,2.17-1.81,4.24-2.88,1.91-.92,3.52-1.5,4.85-1.73.17.92.26,1.73.26,2.42,0,0-.09,1.04-.09,1.04-2.71.77-5.29,1.42-7.54,3.18-.11.09-.21.18-.28.3-.06.11-.08.24-.1.37-.2,1.2-.41,2.4-.61,3.6-.04.25-.08.52.04.74.08.15.22.26.36.36.89.63,2.05.88,2.85,1.59,1.04.92,1.7,1.38,1.99,1.38.35,0,.9-.27,1.65-.81.75-.54,1.41-.81,1.99-.81,0,1.38.14,2.39.43,3-.69.23-1.23.37-1.6.4-.38.04-.65.1-.82.17-2.48,1-4.27,1.54-5.37,1.61l-.26.46-.78-.12c-.06.08-.66.23-1.82.46-.98.23-1.5.5-1.56.81l-.52-.23-.61.46c-.64.08-1.33.12-2.08.12-2.02.23-3.55.65-4.59,1.27l-.35.35-.61-.12c-1.01-.19-2.22,1.19-3.24,1.14-2.44-.11-4.8-.58-7.21-.8-1.24-.11-1.16-.06-2.05.98-.32.37-1.62,1.36-1.69,1.8-.29,1.69-.43,2.88-.43,3.57-.06.62-.32,1.42-.78,2.42-.46,1.08-.69,2.15-.69,3.23,0,.62.43,1.23,1.3,1.85.75.62,1.3,1.15,1.65,1.61l2.08,3.69c.98,1.38,1.96,2.04,2.94,1.96l.52-.12c3.87-5.31,8.78-9.42,14.73-12.34,3.17-1.54,5.95-2.42,8.31-2.65l-1.3,1.61c-1.96,2.46-3.15,4-3.55,4.61,0,0-4.94,5.77-4.94,5.77-1.63,2.36-3.48,4.62-5.65,6.5-.9.78-1.93,1.3-2.86,1.99-1.03.77-1.74,1.92-2.79,2.71,1.53,1.25,2.18,3.27,3.24,4.93.33.52.71,1.02.99,1.57.4.78.48,1.51.48,2.36l-.09.81.78.81c1.27,1,2.14,1.81,2.6,2.42.06.08.29.11.69.11,1.39-.77,2.65-2.65,3.81-5.65,1.35-3.49,2.8-7.02,4.96-10.1,1.14-1.62,2.56-3.01,3.74-4.6.99-1.32,2.27-3.54,3.94-4.1.4.31,1.01.85,1.82,1.61.81.77,1.27,1.27,1.39,1.5-1.11,1.21-2.19,2.62-3.46,3.67-.66.54-1.41.85-1.94,1.49-1.03,1.26-1.16,3.91-1.2,5.48-.07,2.69.54,5.19,1.49,7.7l-.52,1.96h.17l.95-.23c2.02.69,3.32,1.11,3.9,1.27.81-.39,1.39-.81,1.73-1.27,1.56-3.46,2.81-6.15,3.77-8.07.95-1.92,2.49-5.73,3.42-6.81.67.38.81,2.1,13.12,5.03,2.59.62,9.87,2.71,13.12,3.53,2.3.58,4.77,1.21,7.42,1.91,2.47.65,5.83.25,8.62,1.01,6.14,1.67,12.34,4.7,20.14,6.97,1.04-.08,1.85.04,2.43.35,2.82,1.56,8.06-2.9,10-4.82.33-.33.67-.73.62-1.19-.09-.73-1.02-.96-1.52-1.5ZM764.59,365.31c.05.2.08.51.08.91,0,.54-.03.91-.08,1.11l-2.86,1.52-.54-.3-.77-1.82c1.13-.88,2.52-1.35,4.17-1.42ZM760.57,375.85c1.44-1.15,2.73-1.72,3.86-1.72l-.08,2.84c.36,0-.93.37-3.86,1.12l-.23-.51c.05-.54.15-1.11.31-1.72ZM759.96,385.68c1.49-.88,2.83-1.42,4.01-1.62v.91c0,.47-.03.91-.08,1.32v1.32c-1.75.54-3.01.81-3.78.81l-.23-.3-.08-.51.15-1.93ZM723.75,361.93c1.22-.37,2.44-.74,3.65-1.12,1.52-.46,3.99-1.13,5.26-2.07,1.43-1.06,2.02-4.64,1.26-6.17-.18-.37-.46-.68-.73-.99-.58-.65-1.16-1.3-1.75-1.96-1.42-.08-1.99.05-3.27.54-.01,0-3.64,1.38-3.64,1.38-.17-.61-.26-1.15-.26-1.61,0-1.15.29-1.96.87-2.42l1.73-.69c1.27-.46,2.28-.88,3.03-1.27,1.73-.48,2.95-.79,3.89-1.01.07.77.2,1.41.39,1.87l1.62,2.53c.41.68.75,1.52,1,2.53.16,1.08.39,1.76.69,2.03.46.47,1.44.88,2.93,1.22,1.44-.41,2.62-1.01,3.55-1.82,1.44-1.42,2.44-2.33,3.01-2.74,1.85-1.15,4.18-2.28,6.99-3.4.93-.37,1.26-.52,1.35-.57-.1.06-.33.23.45.16l.46.2-.31.61c.57.74.85,1.72.85,2.94,0,.68-.15,1.79-.46,3.34-.26,1.15-.46,2.26-.62,3.34-.26.14-2.34.76-6.25,1.87-1.85.53-3.7,1.05-5.55,1.56-3.53.98-6.88,1.11-10.52,1.05-.93-.01-1.21.04-1.99.41-.63.3-1.07.92-1.85.58l-2.43,1.27c-.35.15-.61.23-.78.23l-.09-.12-.43.46-.35-.23c-1.87.91.83,1.46-2.32,1.99.02-1.6.21-2.92.6-3.96ZM723.01,388.07v.4l-.75.4c-.4.13-.6.73-.6,1.79l-.3.6c-1.99-1.19-3.24-2.05-3.73-2.59,2.79-2.52,5.08-3.78,6.87-3.78-.8,1.19-1.3,2.26-1.49,3.18ZM728.95,394.8l.43-.35c.75-1.85,1.36-3.12,1.82-3.81.17-.15.62-1.17,1.34-3.06.72-1.88,1.2-3.29,1.43-4.21-.29-.77-.43-1.65-.43-2.65v-.69l-.26-.12-.35-1.38c-1.16-1.08-2.11-1.81-2.86-2.19-.69.15-1.36.08-1.99-.23-1.16.08-2.32.35-3.51.81-1.18.46-2.64,1.31-4.37,2.54.52-1,1.13-1.96,1.82-2.88l3.85-1.48c.44,0,.91,0,1.42,0,2.25,0,4.15.56,5.72,1.67.36.96.67,1.54.93,1.73l3.4,2.13c1.29,1.22,2.62,3.58,4.01,7.09,1.13,2.97,1.98,5.67,2.55,8.11-.1.27-.15.57-.15.91-.05.34-.21.68-.46,1.01l1.31.3.08.3c.22.31.42.59.59.85-10.58-1.58-15-3.37-16.31-4.39ZM749.46,384.77c-.57-2.03-.98-3.85-1.24-5.47l.08-.51c-.62-1.55-1.06-3.28-1.31-5.17l-.15-.2.15-.61c.31-.54.57-.84.77-.91l.46.2c.15-.67.46-1.15.93-1.42.46-.27,1.16-.51,2.08-.71l3.09,14.08c-.21,1.15-.36,2.06-.46,2.74l.85,2.63c-1.6.47-2.86.78-3.78.91l-1.47-5.57ZM753.97,400.28c.94-.62,2.18-1.13,3.74-1.53,2.11-.61,4.09-.91,5.94-.91,4.32,0,6.95.27,7.87.81.15.54.39,1.01.69,1.42-.21.2-.31.51-.31.91v.4c.31-.61.72-.91,1.23-.91l.39.1h.31l.31.2.39.94c-8.16-.36-14.95-.86-20.58-1.44ZM773,386.29l-2.7.4c-.05-.07-.31-.1-.77-.1l-.15-.1c.1-8.71,1.41-15.13,3.94-19.25-.77-1.35-1.13-2.43-1.08-3.24v-.4c2.47-.95,5.66-1.42,9.57-1.42-.48,0-1.75,5.38-1.85,6.07-.33,2.24-1.38,4.43-2.2,6.56-1.48,3.87-3.02,7.72-4.75,11.49Z"/>
  </g>
  <g>
    <path class="st0" d="M69.74,430.38c-1.76-.44-2.72-.94-3.23-1.32-.58-.75-1.05-1.43-1.41-2.02-.54-.89-1.06-1.72-1.59-2.52l-.09-.14-.21-.26-2.25-2.48c.2-1.16.42-2.69.72-4.71l.17-1.12-2.92-7.51.16-.75-.18-.89c.16-.42,1.54-2.24,8.82-3.7l33.37-7.25,1.1-19.26-2.73-1.2c-.92-.41-2.03-.6-3.48-.6-1.1,0-3.86,0-6.02,1.61-6.17,1.01-15.41,3.66-28.21,8.09l-2.46.85c-2.58.32-5.8,1.15-11.33,3.36-7.24,2.96-12.1,5.19-14.88,6.81-2.73,1.6-6.59,4.37-11.81,8.47-2.07,1.18-4.7,2.37-6,2.84-.07-.11-.15-.24-.24-.39-.64-1.04-1.49-2.45-2.95-3.81-1.18-1.1-2.23-1.73-3.05-2.13l-.08-1.37-1.99-1.16c-5.09-2.98-6.12-4.73-6.3-5.13.08-.49.42-2.16,1.79-6.83l.18-.59v-.63c0-.89,0-.96-2.65-8.4.35-2.77,1.11-5.97,2.26-9.53.35-.24,1.12-.72,2.81-1.64.63-.34,1.18-.64,1.55-.87,1.07-.66,2.18-1.43,3.33-2.21,2.37-1.62,4.8-3.28,7.13-4.26.32.48.72.98,1.24,1.45,2,1.82,4.39,2.06,6.25,2.06.19,0,2.09-.04,2.09-.04.75,0,.98.06,1.04.08.21.09.4.24.63.4,1.01.68,2.48,1.68,4.63,1.81,0,0,.34,0,.34,0,1.39,0,2.66-.4,3.69-.72.5-.16.76-.25.99-.29,1.19-.19,2.46-.31,3.73-.42,2.37-.22,4.79-.44,7.16-1.1l3.56-.3c.09.02,1.76.52,1.76.52l1.4-.56c3.97-1.6,8.74-2.48,14.17-2.62l1.6-.04.69-.63c.54-.14,1.88-.43,4.88-.84,3.96-.52,6.81-.84,8.71-.99,2.68-.16,6.72-.85,12.32-2.12l4.03-.91-.75-4.06c-.89-4.85-1.87-8.52-2.99-11.22l-.29-.69-.49-.55c-.86-.95-2.46-3.08-5.23-7.91-.57-1.56-1.42-2.86-2.53-3.87l-.5-.45-.06-.03c-.84-1.91-1.72-3.47-2.68-4.71l.42-1.33v-.66c0-.88-.11-2.26-.67-3.7.15-.06,1.02-.41,1.02-.41l13.65-10.5c4.42-3.13,9.09-4.74,13.79-4.74h.02c.92.36,1.81.54,2.69.57.95.56,1.98,1.12,3.07,1.67l2.66,1.34c.79,2.68,2.34,6.04,4.73,10.23,3.45,6.43,3.67,8.19,3.68,8.27l-.55,6.3c-2.1,1.5-3.88,3.84-5.3,6.98-1.74,3.85-2.62,7.47-2.62,10.78,0,1.46.17,2.58.52,3.53l1.35,3.61,3.74-.95c8-2.03,18.63-3.58,31.61-4.61,6.67-.57,11.13-1.56,15.46-2.52,3.44-.76,6.67-1.47,10.89-1.98.59.93,1.37,1.73,2.3,2.33.89.58,1.75.89,2.45,1.14l.08.03c-.05.32-.13.63-.21.95-.1.4-.19.79-.27,1.18-.72,3.78-.15,7.54,1.61,10.62.79,1.38,1.78,2.33,2.58,3.1.41.4.97.93,1.05,1.14.22.69.56,1.29,1,1.79-.36.63-.94,1.46-1.85,2.48-1.8.35-3.73.52-5.74.52q-18.27-.9-18.34-.9c-25.12,0-35.81,2.18-49.35,4.94l-4.13.84.6,4.18.1.46-.39,1.75-.52,6.79c-.02,3.18,1.29,5,2.39,5.99l.92.83,2.84.51h.19c1.43,0,2.98-.26,5.05-.83l7.89-1.38c5.32-.94,10.22-1.81,10.6-1.87,2.12,0,5.41,2.41,5.92,3.69.23.59.12,1.8,0,2.97-.18,1.91-.41,4.23.41,6.63.32.93.97,2.87.66,3.68-.16.41-1.27,1.21-2.01,1.74-.44.32-.89.64-1.32.97-7.49,1.61-25.94,5.14-28.87,5.56l-13.7,2.03c-1.09.12-3.82.78-15.19,4.69-.65.17-14.9,4.86-18.86,7.85-2.58,2.2-4.04,2.89-4.74,3.1Z"/>
    <path class="st0" d="M128.21,491.1c-.07-.23-.41-1.35-.74-2.45l-4.04,1.83-.93-.55c-1.13-.67-2.49-1.28-4.14-1.88l-1.54-.55-.38-.56c-.68-.99-1.29-2.09-1.86-3.35l-.33-.72,1.36-4.29-1.8-.82c-.65-.29-1.47-.42-2.66-.42-.93,0-2.07.25-3.7.8-4.27,1.43-6.92,2.28-7.48,2.41l-.28.08c-1.89.68-3.87,2.45-5.93,5.36l-.3.42-3.42,1.74h-.77c-.39,0-.98.07-1.62.41l-.58.31-.65-.08c-1.03-.13-2.29-.19-3.87-.19-.79,0-1.74-.44-2.82-1.31-1.43-1.15-2.83-2.42-4.17-3.77-.5-.51-1.94-1.94-1.94-1.94l-.03-.82c-.11-3.04-1.55-5.38-4.16-6.76l-6.3-2.74h-2.11c-.38.25-.84.54-.9.58l-.75.46-6.89-1.81-.18-.09c-2.04-.98-3.45-2.24-4.33-3.84l-.45-.82-.9-.25c-1.52-.42-2.93-1.89-4.2-4.38-1.34-2.62-2.05-5.17-2.12-7.57v-.17s.29-2.11.29-2.11l-.12-.44c-.07-.28-.17-.82-.17-1.88,0-1.76,1.02-3.64,3.04-5.6,1.23-1.2,1.6-2.87,1.87-4.09l.33-1.51,1.59-.37c.2-.02.45-.03.75-.03,1.31,0,2.78.2,4.08.39.78.11,1.45.2,2,.25.87.07,1.74.1,2.61.1,1.17,0,2.33-.05,3.5-.1,1.13-.05,2.12-.09,3.12-.1h.27l.27.07c.48.13,1.67.5,4.34,1.57,2.12,1.04,4.08,1.84,5.66,2.32l.68.2.67-.22c4.23-1.42,7.58-2.14,9.99-2.14.51,0,.85.01,1.05.03l.36.03,1.65.72,1.02-1.54.42-.24c.98-.57,4.71-2.25,18.16-5.59l21.58-4.61,1.24.28.68-.31c.34-.15,1.6-.77,3.79-1.83l.43-.21,1.36-1.64.54-.19c1.48-.53,2.87-1.23,4.09-1.85,1.3-.66,2.62-1.33,3.94-1.76,1.1-.36,2.52-.54,4.21-.54,1.32,0,2.84.11,4.64.33l1.21.15,1.39,3.46,1.79.05.31.11c.64.23,1.13.67,2.53,2.24.65.72,1.23,1.37,1.9,1.95,1.08.94,2.28,1.61,3.45,2.27,1.43.8,2.65,1.47,3.33,2.4.66,1.02.77,2.09.92,3.44.16,1.49.35,3.18,1.21,4.78.21.39.46.76.72,1.13.35.5.48.72.58.96.19.55.24.98.32,2.02.04.52.07.95.12,1.33l.21,1.13-.82.97c-.27.24-.57.51-.85.75-.8.7-1.7,1.48-2.42,2.42l-.57.75-.94.06c-4.51.3-8,1.07-10.69,2.36-2.4,1.09-6.6,4.17-15.83,18.6-4.28,6.83-7.39,12.37-9.52,16.91l-.18.39-3.37,2.98-.82-3.27ZM88.28,461.87c.91,1.82,2.62,4.24,5.25,7.41l.91,1.1,1.38-.37c2.71-.72,9.54-2.29,20.86-4.79l.33-.07,5.84.59.6-1.62c1.29-3.5,4.35-10.01,9.09-19.35l1.43-2.82-3.13-.4c-.98-.12-1.9-.18-2.82-.18-3.32,0-6.24.8-9.32,1.64l-.66.18c-1.66.45-4.98,1.22-9.59,2.22-6.49,1.27-11.51,3.49-14.95,6.61l-1.81,1.64.27.24-1.63,1.54c-1.52,1.44-2.28,3.26-2.28,5.43v.53l.24.47Z"/>
  </g>
  <path class="st0" d="M288.36,488.94c-3.57-.77-7.23-2.83-10.88-6.14l-.33-.3-.43-.14c-2.45-.82-4.52-1.22-6.32-1.22-.54,0-1.06.04-1.55.11l-3.85-1.74s0,0,.01,0c.08,0-.24-.57-.24-2.1,0-3.46,1.73-6.78,5.29-10.15l.67-.64v-1.83c-.16-2.92.92-3.89,1.88-4.43,1.93-1.07,4.12-1.83,6.52-2.23l1.53-.27c2.06-.37,3.83-.69,5.7-.69.83,0,1.63.06,2.43.2,3.17.51,6.58.75,10.73.75,3.39,0,6.85-.16,10.2-.32,3.26-.16,6.62-.31,9.83-.31h.46l2.68-1.21v-4.21h-2.15c-.06,0-.74-.05-3.21-.99-1.75-.71-3.04-1.04-3.99-1.04-.27,0-.54.02-.82.07-1.5-2.28-2.79-4.02-3.9-5.3-.78-.89-1.65-1.58-2.59-2.06v-.08c-.27-1.89-1.26-3.34-2.88-4.2-.11-.06-.22-.12-.34-.17.26-.13.53-.26.8-.39,5.59-2.43,6.51-2.76,6.63-2.8l7.92-1.54.23.21,2.9-.52,1.66-1.5v-.95c0-.67-.17-1.74-1.44-4.5l-.41-.89-.94-.28c-.73-.21-1.71-.32-3.1-.32-3.68,0-8.81,2.32-15.68,7.09-1.54-.36-2.81-1.33-2.81-4.49v-.72l-.44-.58c-1.71-2.26-2.98-4.71-4.32-7.31-.53-1.03-1.07-2.08-1.65-3.13,2.59-.74,6.85-2.81,14.47-8.37l3.83-2.79-4.63-1.04c-2.1-.47-3.53-1.35-4.38-2.67l-.39-.6-.66-.25c-1.48-.56-3.14-1.66-4.92-3.28l.43-2.76-.36-.65c-1.49-2.68-2.02-4.42-2.17-5.5.57-.72,1.64-2.01,2.6-3.18,1.93-2.35,4.26-5.18,5.49-6.77l1.66-2.15-6.11-2.77-1.02.75c-2.21,1.64-11.13,12.66-16.2,20.4-5.39,8.21-8.44,13.63-9.34,16.54-2.9,7.41-6.72,16.07-11.32,25.59-4.86,7.77-7.77,12.42-8.6,13.78-3.38,5.57-5.25,9.97-5.69,13.38-3.31,1.69-5.67,5.63-7.18,11.95-1.31.15-2.88.22-4.69.22h-.26l-2.74.66c-1.58-1.6-3.07-2.42-4.53-2.48-.19-.34-.43-.63-.72-.88-.43-1.06-1.19-2.09-2.25-3.05-1.8-1.5-2.55-2.19-2.86-2.49-.11-.45-.38-1.54-.96-4.06l-.07-.31-2.81-4.89.2-2.72c0-1.46-.55-3.08-1.75-5.25-1.4-2.41-1.26-5.47-1.11-8.71.03-.7.07-1.4.08-2.09l8.23-3.78c1.07-.49,2.33-.86,3.67-1.25,2.11-.62,4.3-1.26,6.04-2.51,1.49-1.06,2.72-2.54,3.81-3.84.39-.47.77-.93,1.15-1.35,4.56-5.04,8.93-10.33,12.97-15.29l21.16-26.83c7.72-10.18,13.58-20.04,17.45-29.33l1.78-4.28-4.42,1.4c-3.37,1.07-7.78,2.76-13.12,5.03l-.45.19-.32.37c-2.26,2.59-5.29,5.36-9.01,8.23-.65-.06-1.33-.21-2.04-.45l-.39-.71-.5-.3c-7.56-4.51-11.38-8.97-11.38-13.24,0-.96.11-1.26.11-1.27l.14-.37v-2.64c0-2.83-.72-5.29-2.13-7.31l-.21-.31-6.38-4.5c-.21-.84-.23-1.24-.23-1.39,0-1.14.99-4.7,10.08-13.35.95.07,2.75.94,4.21,1.65,2.24,1.08,4.35,2.1,6.22,2.1,1.27,0,2.11-.48,2.59-.89.07-.06.33-.17.85-.17.21,0,.42.02.63.05l-1.05,1.29,4.17.26c.16,0,.32.01.48.01,1.25,0,2.38-.29,3.38-.54,3.72-.94,7.5-1.5,11.51-2.09,3.29-.48,6.69-.98,10.04-1.71,10.29-2.25,13.89-3.14,15.31-3.57l1.68.43.58-.17c7.83-2.36,14.17-3.93,18.86-4.66,11.82-2.14,19.02-3.55,22.07-4.32,9.2-2.34,15.35-5.16,18.72-8.6,1.66.32,5.35,1.2,7.55,2.09,2.78,1.13,4.92,2,6.41,2.6.18.3.41.71.65,1.12.76,1.33,1.1,1.91,1.47,2.3,1.47,1.55,3.38,2.96,5.67,4.22l.61.33c1.5.81,3.36,1.81,3.47,2.8.02.2,0,.54-.04.86-.09.93-.21,2.33.67,3.62.81,1.17,2.04,1.65,3.09,1.96.01.55.02,1.09.02,1.63,0,.77.01,1.53.04,2.24.14,3.85.47,7.7,1.01,11.75l-1.92,2.47c-.25.02-.59.04-1.04.04-1.08,0-2.19-.19-3.29-.56l-.56-.19-.58.12c-4.59.96-8.88,3.19-12.75,6.64-.85.23-1.65,1.12-4.17,3.89-2.08,1.87-3.88,3.74-5.2,5.41-1.1,1.39-1.9,2.92-2.4,4.57-12.7.83-29.22,4.46-49.16,10.82l-2.02.64.56,1.85c-.06.54-.56,1.93-.86,2.78-.93,2.61-1.67,4.67-.61,6.18.5.71,1.3,1.11,2.2,1.11,1.56,0,3.38-.32,5.6-.99,1.16-.26,2.18-.48,2.91-.63.72-.14,1.28-.29,1.73-.46,7.63-.92,16.34-2.75,25.9-5.44l.86-.24.43-.79c.3-.55.5-.75.56-.8-.01.01,0,.02.03.02.13,0,.63-.09,1.77-.09h1.27s.91,0,1.14,0c3.13,0,5.26.83,8.46,2.08.28,1.1.8,2.08,1.5,2.88-.22,1.27-.08,2.88.14,4.13l-1.75,1.36.11.48c-.37.08-1.96.42-1.96.42l-2.49,2.25,2.19,3.68-.2.79c-3.08.66-6.24,1-9.43,1h-6.41l1.4,1.06-3.62.3c-2.56.45-4.36.67-5.54.67h-.21l-.2.04c-2.39.46-5.17,1.25-8.26,2.33l-1.07.38-.29,1.1c-1.1,4.1-1.4,4.92-1.47,5.07l1.85-1.1,2.11,1.98h-4.3v2.94l2.46-.36c.68-.1,2.51-.32,7.35-.78,4.22-.4,7.83-1.34,10.72-2.81l1.18-.6v-1.32c0-.43.06-.69.11-.82l.14-.37v-1.39h2.98v-1.87l.28-.25c1.19.77,2.67,1.32,4.4,1.63l3.94.4.84.76h1.33c1.14,0,3.86,1.6,5.48,2.56.97.57,1.85,1.09,2.54,1.42,4.43,2.13,7.58,4.25,9.9,6.67,3.73,3.9,5.18,8.93,3.69,12.84-.21.56-.47,1.1-.74,1.66-.69,1.46-1.46,3.07-1.51,4.88-.83.15-1.69.22-2.57.22-2.24,0-4.7-.47-7.1-1.38-2.58-.97-5.06-2.4-7.47-3.79-1.04-.6-2.07-1.2-3.11-1.76-3-1.63-6.37-4.33-6.67-5.33l-4.29.14v.8s.26.79.33,1l-7.72.33c-4.4.32-8.05,1.05-10.89,2.17l-4.03,1.6,3.9,2.36,2.82,5.95,2.12-3.09c.39-.57,1.37-.77,2.21-.84.56.35,1.28.63,2.21.87,1.57,2.01,4.12,4.19,7.77,6.62l.04.03v1.79l.11.24c-.88,1.11-1.48,2.38-1.8,3.79l-.27,1.21.44.41c.01.23.03.58.03,1.11,0,.05,0,.11,0,.16l-.05.04c-.43.12-1.53.39-4.36.95-1.14-.15-2.96-.15-5.88-.15-1.75,0-4.2.76-5.92,4.38l-.06.12-2.23,6.72,3.16.96h1.78c.61.15,1.28.22,2.03.22l13.75-.45,13.5-.9c2.42,0,4.8.08,6.92.22,2.18.15,4.49.23,6.86.23,3.38,0,6.83-.25,10.16-.5,2.87-.21,5.84-.43,8.7-.48h.28c.33,0,.44.02.46.03.04.03.17.16.37.38.29.33.58.67.85,1.02.5.63.98,1.28,1.42,1.95.03.05.06.09.08.13-.07.09-.12.18-.17.26-1.52,2.69-.6,5.41.14,7.59.9,2.65,1.1,3.67-.13,4.79l-.71.64v3.2c0,2.3.18,4.1.55,5.51-1.03.61-2.06.9-3.13.9-.27,0-1.82-.17-10.24-1.98-5.32-1.06-9.63-1.82-12.83-2.28-9.35-1.21-18.23-1.83-26.41-1.83-5.68,0-13.54.54-23.35,1.59-11.17,1.07-18.56,2.21-22.55,3.47-2.31.64-5.33,2.12-9.19,4.5-3.19,1.97-5.77,3.27-7.68,3.89ZM318.75,341.79c-2.16.72-8.31,2.79-8.31,7.49l.83,7.62,2.67-1.15c2.97-1.27,7.89-2.43,14.64-3.45,7.43-1.25,12.49-2.56,15.53-4.02l.49-.23,1.16-1.58h.37l1.61-.72,5.12-10.04-3.92.39c-6.68.66-12.48,1.44-17.28,2.33v-.06l-.79.21c-.44.08-2.27.45-2.27.45l-.09.17-9.74,2.58Z"/>
  <text class="st1" transform="translate(453.6 475.52)"><tspan x="0" y="0" xml:space="preserve">JIU  NOODLES</tspan></text>
</svg>